<svg width="60" height="67" viewBox="0 0 60 67" fill="none" xmlns="http://www.w3.org/2000/svg">
<path fill-rule="evenodd" clip-rule="evenodd" d="M17.1203 0L17.454 1.20122C17.4546 1.20327 17.4551 1.20532 17.4557 1.20737L19.9549 10.2044C20.1397 10.8696 19.7502 11.5586 19.085 11.7433C18.4199 11.9281 17.7309 11.5387 17.5461 10.8735L15.8401 4.73183L6.09195 21.4986L12.4322 19.8301C13.0998 19.6544 13.7834 20.0532 13.9591 20.7208C14.1348 21.3885 13.736 22.0721 13.0684 22.2478L3.56838 24.7478L2.31189 25.0785L2.03003 23.8101L0.0300339 14.8101C-0.119725 14.1362 0.305188 13.4685 0.979105 13.3187C1.65302 13.169 2.32074 13.5939 2.4705 14.2678L3.83477 20.407L13.6265 3.56515L7.58504 5.24335C6.91987 5.42812 6.23086 5.03868 6.04609 4.37351C5.86132 3.70834 6.25076 3.01932 6.91593 2.83455L15.9106 0.336047C15.9141 0.335053 15.9176 0.334075 15.9211 0.333112L17.1203 0Z" fill="#373456"/>
<path d="M40.8074 67C33.5355 67 26.9472 62.6151 24.0231 55.8298C22.7673 52.916 21.5094 50.4056 20.1775 48.1544L19.6887 47.3284C18.9562 46.091 18.171 44.865 17.3541 43.6833L12.424 36.5542C10.5994 33.9161 11.2184 30.2551 13.8049 28.3931C14.7781 27.6925 15.9209 27.322 17.1105 27.322C18.9746 27.322 20.7292 28.249 21.803 29.8024L24.2611 33.3641V8.41855C24.2611 5.18987 26.8359 2.56313 30.0008 2.56313C33.1657 2.56313 35.7405 5.18987 35.7405 8.41855V17.9179C36.5186 17.4834 37.4111 17.236 38.3588 17.236C40.7028 17.236 42.7065 18.7479 43.4829 20.8664C44.3371 20.3024 45.3542 19.9751 46.4453 19.9751C49.2104 19.9751 51.5027 22.0799 51.8642 24.8008C52.6294 24.3526 53.5075 24.0899 54.4396 24.074C55.9377 24.0508 57.3442 24.6289 58.3997 25.7085C59.4319 26.7643 60.0002 28.1651 60.0002 29.6526V44.4384C60.0002 48.5328 59.0871 52.6505 57.3592 56.3461C55.866 59.5396 53.5264 62.2259 50.5934 64.114C47.6599 66.0021 44.2759 67 40.8074 67ZM17.1105 30.229C16.5127 30.229 15.9382 30.4157 15.4482 30.768C14.1458 31.7058 13.8338 33.549 14.7525 34.8777L19.6831 42.0068C20.539 43.2442 21.3615 44.5292 22.1289 45.8249L22.6177 46.651C24.0142 49.0105 25.3272 51.6299 26.6324 54.6588C29.1021 60.3895 34.6661 64.0919 40.8079 64.0919C46.7445 64.0919 52.2312 60.5597 54.7866 55.0934C56.3326 51.7865 57.1501 48.1011 57.1501 44.4372V29.6526C57.1501 28.94 56.877 28.2683 56.3821 27.7617C55.8782 27.246 55.2059 26.9703 54.4874 26.981C53.0787 27.0049 51.9309 28.2269 51.9137 29.7122V35.5778C51.9137 36.3772 51.2808 37.0268 50.4972 37.0313C50.4944 37.0313 50.4917 37.0313 50.4889 37.0313C49.7092 37.0313 49.0735 36.3914 49.0641 35.5948V29.7632V29.7627V29.7468C49.0641 29.7462 49.0641 29.7462 49.0641 29.7456C49.0641 29.7445 49.0641 29.7434 49.0641 29.7428V25.5536C49.0641 24.0809 47.8896 22.8826 46.4459 22.8826C45.0022 22.8826 43.8277 24.0809 43.8277 25.5536V33.2518C43.8277 34.0545 43.1898 34.7053 42.4029 34.7053C41.616 34.7053 40.9781 34.0545 40.9781 33.2518V22.8146C40.9781 21.3418 39.8036 20.1436 38.3599 20.1436C36.9162 20.1436 35.7417 21.3418 35.7417 22.8146V29.7627C35.7417 30.5654 35.1038 31.2162 34.3169 31.2162C33.53 31.2162 32.8921 30.5654 32.8921 29.7627V8.41855C32.8921 6.79314 31.5958 5.47013 30.0019 5.47013C28.4086 5.47013 27.1118 6.79258 27.1118 8.41855V37.9039C27.1251 38.3129 26.97 38.7203 26.6646 39.013C26.4094 39.2587 26.0657 39.409 25.687 39.409C25.1842 39.409 24.7421 39.1429 24.4885 38.7418L19.4746 31.4771C18.9334 30.6959 18.0498 30.229 17.1105 30.229Z" fill="#373456"/>
<path d="M17.1106 30.229C16.5128 30.229 15.9383 30.4157 15.4484 30.768C14.146 31.7058 13.834 33.549 14.7527 34.8777L19.6833 42.0068C20.5391 43.2442 21.3616 44.5292 22.1291 45.8249L22.6179 46.651C24.0143 49.0105 25.3273 51.6299 26.6326 54.6589C29.1023 60.3895 34.6663 64.0919 40.8081 64.0919C46.7447 64.0919 52.2314 60.5597 54.7867 55.0934C56.3328 51.7865 57.1503 48.1011 57.1503 44.4373V29.6526C57.1503 28.94 56.8772 28.2683 56.3822 27.7617C55.8784 27.246 55.2061 26.9703 54.4875 26.981C53.0789 27.0049 51.9311 28.2269 51.9138 29.7122V35.5778C51.9138 36.3772 51.2809 37.0268 50.4974 37.0313C50.4946 37.0313 50.4918 37.0313 50.489 37.0313C49.7094 37.0313 49.0737 36.3914 49.0643 35.5948V29.7632V29.7627V29.7468C49.0643 29.7462 49.0643 29.7462 49.0643 29.7457C49.0643 29.7445 49.0643 29.7434 49.0643 29.7428V25.5536C49.0643 24.0809 47.8897 22.8826 46.446 22.8826C45.0023 22.8826 43.8278 24.0809 43.8278 25.5536V33.2518C43.8278 34.0545 43.1899 34.7053 42.403 34.7053C41.6161 34.7053 40.9783 34.0545 40.9783 33.2518V22.8146C40.9783 21.3418 39.8037 20.1436 38.36 20.1436C36.9163 20.1436 35.7418 21.3418 35.7418 22.8146V29.7627C35.7418 30.5654 35.1039 31.2162 34.317 31.2162C33.5301 31.2162 32.8923 30.5654 32.8923 29.7627V8.41854C32.8923 6.79314 31.5959 5.47012 30.0021 5.47012C28.4088 5.47012 27.1119 6.79257 27.1119 8.41854V37.9039C27.1253 38.3129 26.9701 38.7203 26.6648 39.013C26.4095 39.2587 26.0659 39.409 25.6871 39.409C25.1844 39.409 24.7423 39.1429 24.4887 38.7418L19.4747 31.4771C18.9336 30.6959 18.0499 30.229 17.1106 30.229Z" fill="white"/>
</svg>
