<svg width="311" height="355" viewBox="0 0 311 355" fill="none" xmlns="http://www.w3.org/2000/svg">
<g clip-path="url(#clip0)">
<path d="M156.527 355L151.144 352.306C101.285 327.314 64.927 293.852 39.9979 249.977C9.63021 196.494 -3.23466 129.154 0.685541 44.1251L1.09965 35.0168L155.202 0L309.525 33.9061L310.022 42.9865C314.743 128.293 302.403 195.828 272.311 249.45C247.851 293.019 211.714 326.676 161.855 352.279L156.527 355Z" fill="#575195"/>
<path d="M159.793 125.719C152.114 125.747 145.839 121.531 145.867 112.878C145.922 104.281 152.224 99.8986 159.903 99.8708C167.527 99.8431 173.857 104.197 173.829 112.767C173.802 121.448 167.416 125.719 159.793 125.719ZM160.04 88.7216C147.711 88.7494 136.619 97.458 136.537 112.767C136.454 128.021 147.49 136.536 159.82 136.48C172.068 136.452 183.104 127.883 183.187 112.545C183.242 97.3193 172.288 88.6939 160.04 88.7216Z" fill="#231F20"/>
<path d="M254.993 125.442C247.314 125.47 241.039 121.254 241.067 112.601C241.122 104.004 247.424 99.6216 255.103 99.5939C262.727 99.5662 269.057 103.92 269.029 112.49C269.002 121.143 262.617 125.415 254.993 125.442ZM255.241 88.4169C242.911 88.4447 231.819 97.1533 231.737 112.463C231.654 127.717 242.691 136.231 255.021 136.176C267.268 136.148 278.304 127.578 278.387 112.241C278.442 97.0146 267.488 88.3892 255.241 88.4169Z" fill="#231F20"/>
<path d="M176.527 152.289L176.582 144.579L165.408 144.607L165.38 152.317H166.096C167.362 152.317 167.83 152.788 167.83 154.175L167.802 158.335L151.839 158.391L151.867 153.898C151.867 152.816 152.417 152.345 153.573 152.345H154.179L154.206 144.634L142.84 144.662L142.812 152.372H143.28C144.491 152.372 145.069 152.844 145.069 153.898L144.986 169.124C144.986 170.483 144.491 171.01 143.198 171.01H142.73L142.702 178.581L154.069 178.554L154.096 170.982H153.491C152.225 170.982 151.812 170.483 151.812 169.124L151.839 164.409L167.802 164.354L167.775 169.124C167.775 170.427 167.279 170.954 166.013 170.954H165.298L165.27 178.526L176.444 178.498L176.472 170.927H176.444C175.151 170.927 174.6 170.427 174.628 169.096L174.71 154.175C174.71 152.844 175.151 152.289 176.527 152.289Z" fill="#231F20"/>
<path d="M97.4003 159.722L90.8775 159.75C86.3364 159.778 83.6392 158.89 83.6392 156.034C83.6667 153.288 86.5015 152.567 90.905 152.539H97.4278L97.4003 159.722ZM106.372 152.511H106.95L106.978 144.801L90.9876 144.857C82.2356 144.884 76.6486 147.713 76.6211 154.453C76.5935 159.334 79.4283 162.302 83.7768 163.217C81.0246 163.799 79.2357 165.325 78.7403 167.904L78.4926 169.402C78.355 170.622 77.1165 171.121 75.8229 171.204L75.7954 178.804L84.3548 178.776L84.9052 172.647C85.3731 168.237 86.5841 165.657 92.0885 165.657L97.3452 165.63L97.3177 169.291C97.3177 170.788 96.8223 171.177 95.2811 171.177H94.8958L94.8682 178.748L106.785 178.72L106.813 171.149H106.235C104.639 171.149 104.116 170.733 104.116 169.291L104.198 154.397C104.253 152.927 104.776 152.511 106.372 152.511Z" fill="#231F20"/>
<path d="M116.033 161.608C116.061 155.118 121.015 152.456 127.097 152.456C129.023 152.456 130.867 152.539 132.711 152.872L132.684 156.643L139.344 156.616L139.399 146.104C135.739 144.718 131.088 144.246 126.849 144.274C117.244 144.302 109.235 150.181 109.18 161.636C109.125 171.759 115.345 179.164 126.987 179.136C131.088 179.108 135.656 178.637 139.234 177.333L139.262 169.179C135.766 170.455 131.115 171.259 127.124 171.287C119.776 171.259 116.006 167.543 116.033 161.608Z" fill="#231F20"/>
<path d="M204.021 170.816L203.994 178.388L215.443 178.36L215.47 170.789H214.892C213.296 170.789 212.773 170.372 212.773 168.93L212.801 160.471H212.773L212.856 144.441L204.324 144.469L188.829 169.79L188.911 154.12C188.911 152.678 189.407 152.234 191.003 152.234H191.196L191.223 144.524L179.774 144.552L179.747 152.262H179.994C181.673 152.262 182.169 152.678 182.169 154.12L182.058 178.443L191.691 178.415L206.113 154.841L206.058 168.93C206.003 170.372 205.535 170.816 204.021 170.816Z" fill="#231F20"/>
<path d="M250.589 152.04H251.332L251.36 144.33L238.424 144.357L238.397 151.929H240.268L228.709 161.137L228.736 153.648C228.736 152.567 229.755 152.095 230.966 152.095H231.076L231.103 144.385L219.379 144.413L219.351 152.123H220.149C221.36 152.123 221.938 152.594 221.938 153.648L221.856 168.875C221.856 170.234 221.36 170.76 220.067 170.76H219.269L219.241 178.332L230.966 178.304L230.993 171.204H230.36C229.094 171.204 228.681 170.705 228.681 169.346V168.542L234.929 163.522L240.543 171.176H238.287L238.259 178.304L251.222 178.276L251.249 170.705H250.699C249.35 170.705 248.717 170.289 247.809 169.18L240.516 159.14L247.011 153.981C248.222 152.983 249.103 152.04 250.589 152.04Z" fill="#231F20"/>
<path d="M267.488 161.303L271.699 151.512L275.8 161.275L267.488 161.303ZM288.185 170.566C287.221 170.566 286.836 170.289 286.341 169.207L275.772 144.246L267.846 144.274L256.947 169.29C256.452 170.372 256.066 170.649 255.103 170.649H254.305L254.277 178.221L265.616 178.193L265.644 170.76H263.442L265.011 167.099L278.249 167.071L279.79 170.705H277.423L277.396 178.137L288.955 178.11L288.983 170.538L288.185 170.566Z" fill="#231F20"/>
<path d="M71.8598 152.595H72.3001L72.3277 144.885L59.8051 144.913L51.9062 169.735L44.2826 144.968L31.4298 144.996L31.4023 152.734H32.1454C33.7416 152.734 34.2646 153.15 34.2646 154.592L34.2095 169.485C34.2095 170.927 33.6591 171.343 32.0628 171.371H31.2922L31.2646 178.943L42.8239 178.915L42.8515 171.815H42.7414C41.2001 171.815 40.7047 171.399 40.7323 169.957L40.7873 156.395L47.7504 178.943L55.5942 178.915L62.86 156.533L62.805 169.929C62.805 171.371 62.3096 171.815 60.7684 171.815H60.5482L60.5207 178.943L72.2176 178.915L72.2451 171.343H71.8047C70.1534 171.343 69.7131 170.927 69.7406 169.485L69.8231 154.592C69.7956 153.039 70.236 152.623 71.8598 152.595Z" fill="#231F20"/>
<path d="M134.996 125.359C133.207 125.359 132.684 125.054 131.969 123.446L117.823 89.4989L106.704 89.5266L92.4744 123.501C91.7313 125.11 91.4836 125.498 89.3368 125.498H88.9515L88.8965 136.093L104.034 136.037L104.089 125.637H101.254L112.043 99.8993L122.529 125.581H119.721L119.666 135.982L135.299 135.926L135.354 125.332H134.996V125.359Z" fill="#231F20"/>
<path d="M51.6587 112.795C51.6863 103.893 58.4842 100.259 66.8234 100.232C69.4656 100.232 71.9976 100.343 74.5021 100.786L74.4746 105.113L83.6119 105.085L83.6945 91.5231C78.6579 89.6094 72.3003 88.9993 66.4932 89.027C53.3101 89.0548 42.3287 97.1255 42.2737 112.823C42.2187 126.663 50.6955 136.841 66.6583 136.786C72.2728 136.758 78.5203 136.12 83.4193 134.29L83.4743 123.14C78.6855 124.888 72.3279 125.997 66.8234 126.025C56.7503 126.052 51.6037 120.949 51.6587 112.795Z" fill="#231F20"/>
<path d="M207.874 125.332L198.599 125.359L198.654 116.457L207.929 116.429C215.278 116.401 218.47 117.622 218.443 120.894C218.415 124.139 215.223 125.304 207.874 125.332ZM198.709 99.8438L207.517 99.8161C214.259 99.7883 217.59 100.759 217.562 104.004C217.535 107.277 214.232 108.247 207.461 108.275L198.654 108.303L198.709 99.8438ZM218.14 112.213C224.03 110.771 226.837 106.75 226.865 101.286C226.92 91.163 217.507 89.1938 209.966 89.2215L186.38 89.3047L186.324 99.8993H187.646C188.829 99.8993 189.352 100.288 189.352 101.813L189.242 123.501C189.242 124.971 188.829 125.415 187.508 125.443H186.187L186.132 135.843L209.911 135.76C218.057 135.732 228.021 132.681 228.048 122.614C228.103 116.54 223.755 112.823 218.14 112.213Z" fill="#231F20"/>
<path d="M157.262 125.248C149.583 125.276 143.308 121.06 143.336 112.407C143.391 103.809 149.693 99.4271 157.372 99.3994C164.996 99.3717 171.326 103.726 171.298 112.296C171.243 120.977 164.886 125.248 157.262 125.248ZM157.51 88.2502C145.18 88.2779 134.088 96.9868 134.006 112.296C133.923 127.55 144.96 136.065 157.29 136.009C169.537 135.981 180.573 127.411 180.656 112.074C180.711 96.8479 169.757 88.2225 157.51 88.2502Z" fill="white"/>
<path d="M252.461 124.971C244.782 124.999 238.507 120.783 238.535 112.13C238.59 103.532 244.892 99.1504 252.571 99.1226C260.194 99.0949 266.525 103.449 266.497 112.019C266.442 120.672 260.084 124.943 252.461 124.971ZM252.708 87.9457C240.379 87.9734 229.287 96.682 229.205 111.991C229.122 127.245 240.158 135.76 252.488 135.704C264.736 135.677 275.772 127.107 275.855 111.77C275.91 96.5433 264.956 87.9179 252.708 87.9457Z" fill="white"/>
<path d="M173.996 151.818L174.051 144.108L162.877 144.136L162.849 151.846H163.565C164.831 151.846 165.299 152.317 165.299 153.704L165.271 157.864L149.308 157.92L149.336 153.427C149.336 152.345 149.886 151.874 151.042 151.874H151.648L151.675 144.163L140.309 144.191L140.281 151.901H140.749C141.96 151.901 142.538 152.373 142.538 153.427L142.455 168.653C142.455 170.012 141.96 170.539 140.666 170.539H140.198L140.171 178.11L151.538 178.082L151.565 170.511H150.96C149.694 170.511 149.281 170.012 149.281 168.653L149.308 163.938L165.271 163.882L165.244 168.653C165.244 169.956 164.748 170.483 163.482 170.483H162.767L162.739 178.055L173.913 178.027L173.941 170.456H173.913C172.619 170.456 172.069 169.956 172.097 168.625L172.179 153.704C172.152 152.373 172.592 151.818 173.996 151.818Z" fill="white"/>
<path d="M94.8412 159.278L88.3185 159.306C83.7773 159.334 81.0801 158.446 81.0801 155.59C81.1077 152.844 83.9424 152.123 88.346 152.095L94.8687 152.068L94.8412 159.278ZM103.813 152.04H104.391L104.419 144.33L88.4285 144.385C79.6765 144.413 74.0895 147.242 74.062 153.981C74.0345 158.862 76.8692 161.83 81.2177 162.745C78.4655 163.328 76.6766 164.853 76.1812 167.432L75.9335 168.93C75.7959 170.15 74.5574 170.65 73.2639 170.733L73.2363 178.332L81.7957 178.304L82.3462 172.175C82.814 167.765 84.025 165.186 89.5294 165.186L94.7861 165.158L94.7586 168.819C94.7586 170.317 94.2632 170.705 92.722 170.705H92.3367L92.3092 178.276L104.226 178.249L104.254 170.677H103.676C102.08 170.677 101.557 170.261 101.557 168.819L101.639 153.926C101.694 152.456 102.217 152.04 103.813 152.04Z" fill="white"/>
<path d="M113.501 161.137C113.528 154.647 118.482 151.984 124.565 151.984C126.491 151.984 128.335 152.068 130.179 152.4L130.152 156.172L136.812 156.145L136.867 145.633C133.207 144.247 128.555 143.775 124.317 143.803C114.712 143.831 106.703 149.71 106.648 161.165C106.593 171.288 112.813 178.693 124.455 178.665C128.555 178.637 133.124 178.166 136.702 176.862L136.73 168.708C133.234 169.984 128.583 170.788 124.592 170.816C117.216 170.788 113.473 167.072 113.501 161.137Z" fill="white"/>
<path d="M201.462 170.345L201.434 177.917L212.883 177.889L212.911 170.317H212.333C210.736 170.317 210.214 169.901 210.214 168.459L210.241 160H210.214L210.296 143.97L201.764 143.997L186.269 169.319L186.352 153.649C186.352 152.207 186.847 151.763 188.444 151.763H188.636L188.664 144.053L177.215 144.081L177.187 151.791H177.435C179.114 151.791 179.609 152.207 179.609 153.649L179.499 177.972L189.132 177.944L203.553 154.37L203.498 168.459C203.471 169.901 202.975 170.345 201.462 170.345Z" fill="white"/>
<path d="M248.056 151.569H248.799L248.827 143.859L235.891 143.886L235.864 151.458H237.735L226.176 160.666L226.204 153.177C226.204 152.096 227.222 151.624 228.433 151.624H228.543L228.571 143.914L216.846 143.942L216.819 151.652H217.617C218.828 151.652 219.406 152.123 219.406 153.177L219.323 168.403C219.323 169.762 218.828 170.289 217.534 170.289H216.736L216.708 177.861L228.433 177.833V170.733H227.8C226.534 170.733 226.121 170.234 226.121 168.875V168.071L232.369 163.051L237.983 170.705H235.726L235.699 177.833L248.662 177.805L248.689 170.234H248.139C246.79 170.234 246.157 169.818 245.249 168.709L237.956 158.669L244.451 153.51C245.689 152.512 246.542 151.569 248.056 151.569Z" fill="white"/>
<path d="M264.928 160.831L269.139 151.041L273.24 160.803L264.928 160.831ZM285.625 170.094C284.662 170.094 284.276 169.817 283.781 168.735L273.213 143.774L265.286 143.802L254.387 168.819C253.892 169.9 253.507 170.178 252.543 170.178H251.745L251.718 177.749L263.057 177.721L263.084 170.288H260.883L262.451 166.628L275.69 166.6L277.231 170.233H274.864L274.836 177.666L286.396 177.638L286.423 170.067L285.625 170.094Z" fill="white"/>
<path d="M69.3284 152.151H69.7687L69.7962 144.441L57.2737 144.469L49.3748 169.291L41.7512 144.524L28.8984 144.552L28.8708 152.29H29.6415C31.2377 152.29 31.7607 152.706 31.7607 154.148L31.7056 169.041C31.7056 170.483 31.1552 170.899 29.5589 170.927H28.7883L28.7607 178.499L40.32 178.471L40.3476 171.371H40.2375C38.6962 171.371 38.2008 170.955 38.2284 169.513L38.2834 155.951L45.219 178.499L53.0628 178.471L60.3286 156.089L60.2736 169.485C60.2736 170.927 59.7782 171.371 58.2369 171.371H58.0168L57.9892 178.499L69.6861 178.471L69.7137 170.899H69.2733C67.622 170.899 67.1816 170.483 67.2091 169.041L67.2917 154.148C67.2367 152.567 67.677 152.151 69.3284 152.151Z" fill="white"/>
<path d="M132.436 124.888C130.647 124.888 130.124 124.583 129.408 122.974L115.262 89.0276L104.143 89.0553L89.9416 123.03C89.1986 124.639 88.9509 125.027 86.8041 125.027H86.4188L86.3638 135.621L101.501 135.566L101.556 125.165H98.7212L109.51 99.428L119.996 125.11H117.189L117.134 135.51L132.766 135.455L132.821 124.86H132.436V124.888Z" fill="white"/>
<path d="M49.0994 112.324C49.1269 103.422 55.9248 99.7883 64.264 99.7606C66.9062 99.7606 69.4382 99.8715 71.9427 100.315L71.9152 104.642L81.0525 104.614L81.1076 91.052C76.071 89.1383 69.7134 88.5282 63.9063 88.5559C50.7232 88.5836 39.7418 96.6543 39.6868 112.352C39.6317 126.191 48.1086 136.37 64.0714 136.314C69.6859 136.287 75.9334 135.649 80.8324 133.818L80.8874 122.669C76.0986 124.416 69.7409 125.526 64.2365 125.554C54.2185 125.581 49.0718 120.478 49.0994 112.324Z" fill="white"/>
<path d="M205.315 124.86L196.04 124.888L196.095 115.985L205.37 115.958C212.718 115.93 215.911 117.15 215.883 120.423C215.856 123.668 212.663 124.833 205.315 124.86ZM196.177 99.3726L204.985 99.3448C211.727 99.3171 215.058 100.288 215.03 103.533C215.003 106.805 211.7 107.776 204.929 107.804L196.122 107.832L196.177 99.3726ZM215.581 111.742C221.47 110.3 224.278 106.278 224.305 100.815C224.36 90.6917 214.948 88.7226 207.406 88.7503L183.82 88.8335L183.765 99.428H185.086C186.269 99.428 186.792 99.8163 186.792 101.342L186.682 123.03C186.682 124.5 186.269 124.944 184.948 124.971H183.627L183.572 135.372L207.351 135.289C215.498 135.261 225.461 132.21 225.488 122.142C225.571 116.069 221.223 112.352 215.581 111.742Z" fill="white"/>
<path d="M149.197 52.4451L165.545 52.4174V54.858L149.197 54.8858V52.4451ZM149.197 47.2588L165.545 47.2311V49.6717L149.197 49.6994V47.2588ZM195.324 52.0568H198.407V53.8873H195.324V52.0568ZM195.324 47.9522H198.407V49.7826H195.324V47.9522ZM195.297 44.0139H198.379V45.8443H195.297V44.0139ZM195.297 39.6318H198.379V41.4623H195.297V39.6318ZM195.297 36.165H198.379V37.9955H195.297V36.165ZM203.939 58.5467L209.911 58.519V60.3494L203.939 60.3772V58.5467ZM139.922 68.3924L219.269 68.226C219.186 66.7006 219.131 65.1752 219.076 63.6776H215.14L214.92 54.442L203.168 54.4697V52.6393L214.893 52.6115L214.837 49.6994L216.681 48.5901L212.994 47.4252L202.7 44.1525L202.673 36.2483L204.93 35.333L201.379 33.558V33.5858L189.627 27.623L176.719 32.5596L175.206 21.7433C175.206 21.7433 172.178 21.7433 171.931 21.7433C171.683 21.7433 171.297 34.6119 171.297 34.6119L167.885 35.9154V35.8877L164.169 37.3299L166.068 38.3006V40.9076L186.187 43.9029L186.159 63.733H183.38L183.352 46.5654L156.628 41.9061L155.747 28.76H154.757L153.656 41.3791L143.197 39.5486L138.051 41.0186L136.84 30.1744H135.711L135.078 41.8783L131.06 43.0154L130.069 35.749H128.803L127.73 43.9584L120.244 46.094L116.391 47.0647L118.84 48.7287L118.868 63.844L111.382 63.8717C111.464 65.3971 111.492 66.9225 111.409 68.4201L127.84 68.3924V63.844L127.813 56.9381L139.867 56.9104L139.895 63.8162L139.922 68.3924Z" fill="black"/>
<path d="M28.8436 50.5048V52.0302H26.3666L26.339 59.3244H24.4675L24.4951 52.0302L22.0181 52.0025L22.0456 50.4771L28.8436 50.5048Z" fill="black"/>
<path d="M31.3476 56.1073H34.0447L32.7237 52.0858H32.6962L31.3476 56.1073ZM30.2467 59.3522H28.3477L31.7054 50.5327H33.742L37.0171 59.3799H35.1181L34.4851 57.4662L30.8797 57.4385L30.2467 59.3522Z" fill="black"/>
<path d="M47.4474 50.5881L47.4198 59.4077H45.7135L45.741 53.6389H45.7135L43.1539 57.9377H42.3558L39.8513 53.6112H39.8237L39.7962 59.3799H38.0898L38.1174 50.5327H39.8788L42.7411 55.7467H42.7686L45.6859 50.5604L47.4474 50.5881Z" fill="black"/>
<path d="M52.732 58.0202C53.7228 58.0202 54.1632 57.6597 54.1632 56.7445C54.1632 55.9124 53.7779 55.5519 52.7045 55.5241H51.2458V58.0202H52.732ZM55.5668 50.6152V52.1128L51.2731 52.0851V54.1374H52.8969C55.1537 54.1374 56.0072 55.1913 56.0072 56.7445C56.0072 58.4085 55.0989 59.4347 52.8421 59.4347L49.4019 59.407L49.4291 50.5597L55.5668 50.6152Z" fill="black"/>
<path d="M62.64 53.9157C62.64 52.6121 62.062 51.9743 60.8511 51.9743C59.6401 51.9743 59.0346 52.5844 59.0346 53.8879V56.1899C59.0346 57.5211 59.6126 58.159 60.8235 58.159C62.0345 58.159 62.64 57.5211 62.64 56.1899V53.9157ZM64.5115 53.9157V56.2176C64.5115 58.2422 63.1904 59.6012 60.8235 59.6012C58.4841 59.6012 57.1631 58.2145 57.1631 56.1899V53.8879C57.1631 51.8356 58.4841 50.5043 60.8511 50.5043C63.1904 50.5043 64.5115 51.8633 64.5115 53.9157Z" fill="black"/>
<path d="M67.9522 54.3311H69.4659C70.4567 54.3311 70.8145 53.9706 70.8145 53.194C70.8145 52.4729 70.4567 52.1124 69.4659 52.1124H67.9522V54.3311ZM67.9522 58.0753H69.7136C70.7044 58.0753 71.1723 57.7147 71.1723 56.8272C71.1723 55.9952 70.7595 55.6346 69.7136 55.6346H67.9797L67.9522 58.0753ZM71.2824 54.8581V54.8858C72.4933 55.1909 73.0163 55.9675 73.0163 56.9659C73.0163 58.5468 72.0805 59.5175 69.8237 59.4897H66.1357L66.1633 50.6425L69.4659 50.6702C71.6402 50.6702 72.5484 51.6964 72.5484 52.9444C72.5209 53.8874 72.1906 54.5253 71.2824 54.8581Z" fill="black"/>
<path d="M80.6948 52.5564L79.3737 53.0833C79.1536 52.4454 78.6031 52.0294 77.7499 52.0294C76.6215 52.0294 76.0436 52.7228 76.016 53.8876V56.4669C76.016 57.5208 76.594 58.2697 77.7224 58.2974C78.5756 58.2974 79.071 57.9646 79.3737 57.188L80.6948 57.6872C80.282 58.9908 79.2361 59.6841 77.5573 59.6841C75.4931 59.6841 74.1445 58.4083 74.1445 56.4669V53.8876C74.1445 51.8076 75.4931 50.5595 77.5573 50.5872C79.126 50.5872 80.337 51.5025 80.6948 52.5564Z" fill="black"/>
<path d="M89.3365 51.946H89.0338C88.5384 51.946 88.2632 52.1678 88.0155 52.5839L86.9974 54.1647C86.7222 54.5807 86.447 54.8303 86.0617 54.9968V55.0245C86.5571 55.1632 86.9146 55.4682 87.1347 55.8843L88.3182 57.8534C88.5659 58.2694 88.8414 58.4358 89.3093 58.4358H89.5842V59.5452C89.3916 59.6007 88.9787 59.6284 88.6485 59.6284C87.6026 59.6284 87.0249 59.1569 86.5295 58.3526L85.2632 56.2448C85.0155 55.8288 84.7956 55.6901 84.2452 55.6901H83.8871L83.8596 59.5452H82.0156L82.0431 50.6979H83.8871L83.8596 54.3589H84.2174C84.6578 54.3589 84.933 54.1925 85.2082 53.8042L86.4467 51.835C86.9146 51.0862 87.5203 50.6425 88.4836 50.6425C88.8689 50.6425 89.1439 50.6702 89.3365 50.6979V51.946Z" fill="black"/>
<path d="M92.9428 56.3566H95.64L94.3189 52.3351H94.2914L92.9428 56.3566ZM91.8419 59.6015H89.9429L93.3006 50.782H95.3372L98.6123 59.6292H96.7133L96.0803 57.7156L92.4749 57.6878L91.8419 59.6015Z" fill="black"/>
<path d="M104.309 52.2234H103.07C101.97 52.2234 101.529 52.6394 101.529 53.5546C101.529 54.4421 101.914 54.8859 103.098 54.9136H104.309V52.2234ZM106.153 50.8089L106.125 59.6562H104.281L104.309 56.1616H103.593C103.125 56.1616 102.878 56.328 102.658 56.7441L101.777 58.5191C101.364 59.3511 100.676 59.7116 99.7127 59.7116C99.4375 59.7116 99.1072 59.6839 98.9146 59.6284V58.4913H99.1898C99.6301 58.4913 99.8503 58.3526 100.07 57.9366L100.841 56.439C101.006 56.1062 101.226 55.8843 101.584 55.7179V55.6901C100.263 55.4128 99.6576 54.553 99.6576 53.3882C99.6576 51.8628 100.621 50.8089 103.07 50.8089H106.153Z" fill="black"/>
<path d="M231.681 53.6381C231.681 52.3346 231.104 51.6967 229.865 51.6967C228.654 51.6967 228.049 52.3068 228.049 53.6381V55.94C228.049 57.2713 228.627 57.9092 229.865 57.9092C231.076 57.9092 231.681 57.2713 231.681 55.94V53.6381ZM233.525 53.6381V55.94C233.525 57.9646 232.204 59.3236 229.865 59.3236C227.526 59.3236 226.205 57.9369 226.205 55.9123V53.6103C226.205 51.558 227.526 50.2267 229.865 50.2267C232.232 50.2267 233.553 51.5857 233.525 53.6381Z" fill="black"/>
<path d="M238.837 57.7982C239.827 57.7982 240.268 57.4099 240.268 56.5224C240.268 55.6904 239.882 55.3298 238.809 55.3298H237.35V57.8259L238.837 57.7982ZM241.671 50.3931V51.8908H237.378V53.9431H239.002C241.258 53.9431 242.112 54.9693 242.112 56.5502C242.112 58.2142 241.203 59.2404 238.947 59.2404H235.506L235.534 50.3931H241.671Z" fill="black"/>
<path d="M250.809 59.2412H248.937L248.965 51.8639H246.571L246.405 54.5264C246.158 58.4092 245.25 59.2967 243.708 59.2967C243.406 59.2967 243.13 59.2689 242.91 59.1857V58.0486H243.158C244.121 58.0486 244.451 57.4662 244.644 54.3877L244.919 50.3662L250.864 50.3939L250.809 59.2412Z" fill="black"/>
<path d="M255.185 56.0231H257.882L256.561 52.0016H256.533L255.185 56.0231ZM254.111 59.268H252.212L255.543 50.4485H257.579L260.882 59.2958H258.983L258.35 57.3821H254.744L254.111 59.268Z" fill="black"/>
<path d="M268.176 52.3072L266.855 52.8342C266.635 52.1963 266.084 51.7803 265.231 51.7803C264.075 51.7803 263.525 52.4736 263.497 53.6385V56.2178C263.497 57.2717 264.075 58.0205 265.203 58.0205C266.057 58.0205 266.552 57.6877 266.855 56.9111L268.176 57.4104C267.763 58.7139 266.717 59.4072 265.038 59.4072C262.974 59.4072 261.625 58.1315 261.625 56.2178V53.6385C261.625 51.5861 262.974 50.3104 265.038 50.3104C266.635 50.3381 267.818 51.2256 268.176 52.3072Z" fill="black"/>
<path d="M275.909 50.4762V52.0016H273.432V59.2958H271.561L271.588 52.0016H269.111V50.4485L275.909 50.4762Z" fill="black"/>
<path d="M280.754 57.909C281.8 57.909 282.185 57.5485 282.185 56.6333C282.185 55.7735 281.827 55.4129 280.726 55.4129H279.268V57.909H280.754ZM279.295 50.4762V54.0262H280.947C283.203 54.0262 284.057 55.0524 284.029 56.6055C284.029 58.2696 283.148 59.2958 280.864 59.2958H277.424L277.451 50.4485L279.295 50.4762Z" fill="black"/>
<path d="M37.7895 200.915L47.1226 200.86L51.1967 212.313L54.6618 200.824L64.1942 200.767L64.2017 204.521L61.5097 204.539L61.5585 216.782L64.2504 216.763L64.2579 220.517L55.1241 220.57L55.1167 216.816L57.2501 216.8L57.2118 203.733L55.9275 208.273L52.6343 218.217L49.8416 218.227L45.818 207.792L44.5421 204.119L44.5876 216.884L46.7823 216.881L46.7898 220.634L37.8948 220.681L37.8873 216.927L40.5793 216.908L40.5305 204.666L37.8385 204.684L37.7895 200.915Z" fill="black" stroke="black" stroke-width="0.714715" stroke-miterlimit="10"/>
<path d="M67.0005 220.555L66.993 216.8L69.9658 216.79L72.3466 212.79C71.0989 212.327 70.0664 211.638 69.2053 210.69C68.366 209.759 67.9258 208.643 67.9242 207.338C67.9262 205.33 68.6503 203.723 70.1205 202.555C71.5886 201.367 73.7607 200.784 76.6327 200.766L85.2903 200.726L85.2977 204.48L82.6054 204.499L82.6542 216.744L85.3465 216.725L85.354 220.48L76.5562 220.515L76.5488 216.761L78.3451 216.762L78.334 213.71L75.9001 213.72L72.5275 220.542L67.0005 220.555ZM76.6933 210.539L78.2881 210.522L78.2723 204.479L76.6775 204.496C75.2601 204.493 74.1708 204.755 73.4293 205.279C72.6877 205.804 72.3115 206.569 72.3204 207.572C72.3228 208.515 72.7002 209.236 73.4352 209.757C74.192 210.295 75.2759 210.536 76.6933 210.539Z" fill="black" stroke="black" stroke-width="0.714715" stroke-miterlimit="10"/>
<path d="M101.004 204.072C101.002 204.052 100.836 203.99 100.509 203.926C100.181 203.842 99.754 203.769 99.2853 203.681C98.7969 203.595 98.3128 203.548 97.8155 203.563C95.9401 203.571 94.5082 204.172 93.5198 205.367C92.5314 206.562 92.0392 208.283 92.0432 210.532C92.0516 212.821 92.5584 214.552 93.5878 215.763C94.6171 216.974 96.0378 217.559 97.854 217.558C98.4127 217.556 98.9233 217.479 99.4253 217.323C99.9077 217.168 100.465 216.966 101.054 216.699L101.786 213.686L105.388 214.51L104.341 219.587C103.26 220.109 102.225 220.505 101.237 220.776C100.268 221.045 99.1456 221.19 97.8683 221.191C95.8527 221.195 94.0569 220.832 92.5205 220.099C90.9819 219.347 89.7596 218.198 88.8909 216.627C88.0222 215.057 87.5839 213.037 87.5781 210.587C87.5762 208.358 87.9877 206.445 88.8367 204.884C89.6659 203.326 90.8713 202.107 92.3957 201.254C93.9399 200.4 95.7307 199.979 97.766 199.974C99.1419 199.961 100.336 200.11 101.325 200.401C102.315 200.693 103.339 201.121 104.383 201.728L105.407 206.755L101.783 207.58L101.004 204.072Z" fill="black" stroke="black" stroke-width="0.714715" stroke-miterlimit="10"/>
<path d="M117.834 199.845C119.788 199.828 121.509 200.239 123.012 201.036C124.518 201.852 125.683 203.028 126.53 204.581C127.377 206.133 127.806 208.073 127.817 210.382C127.825 212.67 127.416 214.604 126.569 216.184C125.725 217.784 124.576 218.977 123.089 219.805C121.602 220.633 119.89 221.045 117.936 221.061C116.002 221.076 114.281 220.665 112.777 219.868C111.272 219.052 110.104 217.856 109.256 216.284C108.407 214.711 107.977 212.771 107.969 210.482C107.958 208.174 108.367 206.241 109.216 204.68C110.046 203.122 111.211 201.907 112.701 201.099C114.188 200.271 115.897 199.84 117.834 199.845ZM117.885 203.454C116.069 203.455 114.697 204.05 113.787 205.236C112.878 206.421 112.427 208.159 112.436 210.447C112.446 212.755 112.913 214.491 113.82 215.675C114.727 216.86 116.108 217.449 117.922 217.428C119.738 217.426 121.108 216.812 122.038 215.624C122.947 214.438 123.415 212.679 123.407 210.391C123.396 208.082 122.929 206.347 122.025 205.182C121.102 204.04 119.721 203.451 117.885 203.454Z" fill="black" stroke="black" stroke-width="0.714715" stroke-miterlimit="10"/>
<path d="M136.785 200.51L158.745 200.395L158.753 204.15L155.561 204.164L155.61 216.407L158.801 216.394L158.809 220.148L149.414 220.19L149.406 216.435L151.36 216.419L151.311 204.175L144.21 204.202L144.258 216.446L146.193 216.432L146.2 220.186L136.805 220.228L136.798 216.473L139.989 216.459L139.94 204.215L136.769 204.227L136.785 200.51Z" fill="black" stroke="black" stroke-width="0.714715" stroke-miterlimit="10"/>
<path d="M170.818 199.61C172.772 199.593 174.513 200.002 175.996 200.801C177.502 201.617 178.667 202.793 179.514 204.346C180.36 205.898 180.79 207.839 180.801 210.147C180.809 212.436 180.4 214.369 179.553 215.949C178.708 217.549 177.54 218.744 176.073 219.57C174.586 220.398 172.874 220.81 170.92 220.826C168.985 220.841 167.264 220.43 165.761 219.633C164.255 218.817 163.088 217.621 162.239 216.049C161.39 214.476 160.961 212.536 160.952 210.248C160.942 207.939 161.351 206.006 162.2 204.445C163.029 202.887 164.195 201.673 165.684 200.864C167.174 200.056 168.883 199.625 170.818 199.61ZM170.871 203.239C169.055 203.24 167.683 203.835 166.773 205.021C165.864 206.206 165.413 207.944 165.424 210.252C165.434 212.56 165.901 214.296 166.808 215.48C167.715 216.664 169.096 217.254 170.91 217.233C172.726 217.231 174.096 216.617 175.026 215.429C175.935 214.243 176.403 212.484 176.395 210.196C176.384 207.887 175.917 206.152 175.013 204.987C174.086 203.805 172.707 203.236 170.871 203.239Z" fill="black" stroke="black" stroke-width="0.714715" stroke-miterlimit="10"/>
<path d="M189.793 220.031L189.786 216.276L192.478 216.258L192.429 204.012L189.737 204.031L189.729 200.276L198.567 200.236C201.22 200.222 203.226 200.682 204.642 201.588C206.04 202.517 206.74 203.825 206.748 205.552C206.756 206.555 206.531 207.423 206.074 208.177C205.614 208.911 204.98 209.504 204.129 209.94C205.178 210.225 205.974 210.759 206.538 211.54C207.101 212.321 207.369 213.315 207.379 214.519C207.389 216.265 206.816 217.614 205.68 218.544C204.545 219.494 202.879 219.96 200.706 219.981L189.793 220.031ZM196.768 216.242L199.901 216.235C200.878 216.227 201.636 216.042 202.154 215.663C202.672 215.284 202.929 214.713 202.931 213.99C202.932 213.267 202.675 212.733 202.196 212.364C201.697 211.998 200.999 211.815 200.101 211.814L196.768 211.824L196.768 216.242ZM196.74 208.433L200.112 208.419C200.831 208.419 201.368 208.219 201.726 207.838C202.084 207.456 202.264 206.914 202.27 206.231C202.267 204.725 201.149 203.986 198.936 204.011L196.741 204.014L196.74 208.433Z" fill="black" stroke="black" stroke-width="0.714715" stroke-miterlimit="10"/>
<path d="M223.301 203.564C223.299 203.544 223.133 203.482 222.807 203.418C222.478 203.334 222.051 203.261 221.582 203.173C221.094 203.087 220.61 203.04 220.113 203.055C218.237 203.063 216.805 203.664 215.817 204.859C214.829 206.054 214.317 207.778 214.34 210.024C214.349 212.313 214.856 214.044 215.885 215.255C216.914 216.466 218.335 217.051 220.151 217.05C220.71 217.048 221.22 216.971 221.723 216.815C222.205 216.66 222.762 216.458 223.352 216.191L224.083 213.178L227.685 214.002L226.638 219.079C225.557 219.601 224.522 219.998 223.553 220.266C222.584 220.535 221.462 220.68 220.185 220.681C218.17 220.685 216.374 220.322 214.837 219.589C213.279 218.839 212.076 217.687 211.208 216.117C210.339 214.547 209.901 212.527 209.895 210.077C209.893 207.848 210.305 205.935 211.134 204.376C211.963 202.818 213.168 201.599 214.713 200.744C216.257 199.889 218.048 199.469 220.083 199.464C221.459 199.451 222.653 199.599 223.642 199.891C224.632 200.182 225.656 200.611 226.7 201.218L227.724 206.245L224.1 207.07L223.301 203.564Z" fill="black" stroke="black" stroke-width="0.714715" stroke-miterlimit="10"/>
<path d="M230.258 200.113L245.48 200.046L247.568 206.24L244.047 207.455L242.792 203.799L237.267 203.832L237.274 207.948L242.7 207.927L242.704 211.642L237.277 211.663L237.294 216.06L243.717 216.028L244.877 212.725L248.382 213.942L246.396 219.746L230.277 219.833L230.27 216.078L232.963 216.06L232.955 203.83L230.263 203.848L230.258 200.113Z" fill="black" stroke="black" stroke-width="0.714715" stroke-miterlimit="10"/>
<path d="M250.668 200.032L260.002 199.977L264.076 211.43L267.541 199.941L277.073 199.884L277.081 203.638L274.389 203.656L274.437 215.899L277.129 215.88L277.137 219.634L268.003 219.687L267.996 215.933L270.129 215.916L270.091 202.849L268.806 207.39L265.513 217.334L262.72 217.343L258.697 206.909L257.421 203.236L257.467 216.001L259.661 215.997L259.669 219.751L250.774 219.798L250.766 216.044L253.458 216.025L253.409 203.783L250.717 203.801L250.668 200.032Z" fill="black" stroke="black" stroke-width="0.714715" stroke-miterlimit="10"/>
<path d="M64.8806 225.508L86.8407 225.393L86.8482 229.147L83.6566 229.161L83.7053 241.405L86.897 241.391L86.9044 245.146L77.5092 245.187L77.5018 241.433L79.4754 241.414L79.4267 229.17L72.325 229.198L72.3737 241.442L74.308 241.427L74.3154 245.181L64.9202 245.223L64.9128 241.469L68.1044 241.455L68.0556 229.211L64.8837 229.223L64.8806 225.508Z" fill="black" stroke="black" stroke-width="0.714715" stroke-miterlimit="10"/>
<path d="M98.2181 225.367C100.852 225.355 102.888 225.911 104.266 227.023C105.663 228.133 106.357 229.743 106.368 231.87C106.365 234.06 105.689 235.742 104.298 236.901C102.906 238.06 100.894 238.645 98.2603 238.657L96.604 238.661L96.6181 241.371L99.751 241.363L99.7584 245.118L89.6651 245.177L89.6576 241.422L92.3108 241.408L92.262 229.163L89.6089 229.177L89.6014 225.422L98.2181 225.367ZM98.2191 235.328C100.712 235.312 101.95 234.21 101.948 231.981C101.939 230.054 100.699 229.107 98.2058 229.124L96.6109 229.14L96.6241 235.345L98.2191 235.328Z" fill="black" stroke="black" stroke-width="0.714715" stroke-miterlimit="10"/>
<path d="M105.75 245.087L105.742 241.333L109.033 241.308L113.851 229.044L111.258 229.052L111.25 225.297L119.248 225.25L125.466 241.206L128.4 241.2L128.407 244.955L119.57 244.995L119.563 241.24L121.199 241.239L120.193 238.399L113.77 238.431L112.783 241.292L114.619 241.289L114.626 245.043L105.75 245.087ZM114.751 235.691L119.239 235.674L116.99 229.277L114.751 235.691Z" fill="black" stroke="black" stroke-width="0.714715" stroke-miterlimit="10"/>
<path d="M130.549 244.995L130.541 241.24L133.234 241.222L133.185 228.976L130.493 228.995L130.485 225.24L139.323 225.2C141.956 225.188 143.982 225.645 145.398 226.552C146.796 227.481 147.496 228.789 147.503 230.515C147.512 231.519 147.287 232.387 146.83 233.141C146.37 233.875 145.736 234.468 144.883 234.884C145.932 235.169 146.728 235.703 147.291 236.484C147.855 237.265 148.122 238.259 148.133 239.463C148.143 241.209 147.57 242.558 146.433 243.488C145.299 244.438 143.633 244.904 141.459 244.925L130.549 244.995ZM137.543 241.204L140.676 241.197C141.653 241.188 142.412 241.004 142.927 240.605C143.445 240.226 143.703 239.655 143.704 238.932C143.706 238.208 143.448 237.675 142.969 237.306C142.471 236.94 141.772 236.757 140.874 236.756L137.542 236.766L137.543 241.204ZM137.516 233.394L140.888 233.381C141.606 233.381 142.143 233.181 142.501 232.799C142.859 232.418 143.04 231.876 143.046 231.192C143.042 229.686 141.924 228.947 139.712 228.973L137.516 228.976L137.516 233.394Z" fill="black" stroke="black" stroke-width="0.714715" stroke-miterlimit="10"/>
<path d="M150.678 225.16L159.497 225.142L159.5 228.857L157.704 228.856L157.743 239.354L166.034 225.057L173.035 225.021L173.042 228.775L170.35 228.794L170.399 241.038L173.091 241.019L173.098 244.773L164.343 244.824L164.335 241.07L166.09 241.055L166.06 230.456L157.78 244.852L150.759 244.89L150.752 241.136L153.483 241.113L153.435 228.869L150.703 228.892L150.678 225.16Z" fill="black" stroke="black" stroke-width="0.714715" stroke-miterlimit="10"/>
<path d="M177.305 245.428C177.145 245.426 177.005 245.422 176.867 245.437C176.726 245.433 176.385 245.41 175.842 245.37L175.826 241.356C177.083 241.356 178.063 241.187 178.743 240.83C179.425 240.493 179.914 239.857 180.214 238.94C180.514 238.023 180.727 236.674 180.836 234.914L181.25 228.784L178.218 228.8L178.211 225.045L196.741 224.951L196.748 228.705L193.556 228.719L193.605 240.963L196.797 240.949L196.804 244.704L187.409 244.746L187.402 240.991L189.296 240.981L189.248 228.737L184.958 228.752L184.449 235.838C184.315 237.74 184.016 239.4 183.553 240.837C183.07 242.277 182.354 243.4 181.362 244.194C180.375 245.026 179.022 245.438 177.305 245.428Z" fill="black" stroke="black" stroke-width="0.714715" stroke-miterlimit="10"/>
<path d="M199.064 244.711L199.056 240.957L202.347 240.932L207.165 228.668L204.572 228.676L204.564 224.921L212.562 224.874L218.78 240.83L221.713 240.824L221.721 244.579L212.884 244.619L212.877 240.864L214.513 240.863L213.507 238.023L207.084 238.055L206.097 240.916L207.933 240.913L207.94 244.667L199.064 244.711ZM208.065 235.315L212.573 235.295L210.324 228.899L208.065 235.315Z" fill="black" stroke="black" stroke-width="0.714715" stroke-miterlimit="10"/>
<path d="M223.819 224.868L233.152 224.813L237.226 236.266L240.691 224.777L250.224 224.72L250.231 228.474L247.539 228.492L247.588 240.735L250.28 240.717L250.287 244.47L241.153 244.523L241.146 240.769L243.279 240.753L243.241 227.686L241.957 232.226L238.664 242.17L235.871 242.18L231.847 231.745L230.571 228.072L230.617 240.837L232.812 240.834L232.819 244.588L223.924 244.634L223.917 240.88L226.609 240.861L226.56 228.619L223.868 228.637L223.819 224.868Z" fill="black" stroke="black" stroke-width="0.714715" stroke-miterlimit="10"/>
<path d="M196.839 265.854C196.399 265.474 195.872 265.891 195.422 266.236C194.207 267.152 174.961 286.288 160.145 301.085C158.517 302.703 156.929 304.296 155.434 305.773C148.295 312.909 143.07 318.141 142.993 318.213C142.673 318.587 142.779 319.002 143.052 319.399C143.695 320.311 145.487 322.125 146.398 322.774C147.358 323.483 147.692 323.448 148.577 322.61C148.654 322.538 154.928 316.216 160.448 310.57C162.167 308.814 163.811 307.151 165.166 305.753C167.152 303.714 168.563 302.246 168.729 302.016C169.155 301.439 169.491 301.425 170.03 301.943C171.083 302.94 174.957 306.919 175.989 307.918C176.318 308.246 176.519 308.352 176.898 307.929C178.088 306.57 191.532 291.981 196.493 274.981C197.631 271.072 197.542 266.525 196.839 265.854Z" fill="black"/>
<path d="M174.218 314.278C172.999 313.108 169.469 309.794 165.78 306.37C165.641 306.257 165.451 306.256 165.316 306.376L161.036 310.743C160.901 310.863 160.923 311.074 161.042 311.211C163.738 313.802 165.993 316.014 166.396 316.44C168.824 319.102 170.858 323.467 172.542 323.418C173.451 323.429 175.915 321.318 176.804 320.522C179.299 318.302 175.038 315.065 174.218 314.278ZM174.239 317.555C174.161 318.032 173.781 318.433 173.328 318.545C172.482 318.74 171.731 318.01 171.876 317.164C171.954 316.688 172.334 316.286 172.787 316.174C173.612 315.981 174.361 316.691 174.239 317.555Z" fill="black"/>
<path d="M154.5 296.716C154.252 296.976 151.772 299.749 150.746 300.857C150.557 301.068 150.589 301.172 150.776 301.344C150.985 301.534 152.953 303.415 155.413 305.775C156.906 304.277 158.475 302.708 160.124 301.087C157.601 298.733 155.684 296.933 155.405 296.685C154.983 296.282 154.92 296.289 154.5 296.716Z" fill="black"/>
<path d="M154.175 295.558C153.504 294.99 152.888 294.331 152.255 293.716C151.039 292.567 149.902 291.366 148.745 290.168C146.501 287.85 144.374 285.434 142.305 282.969C140.811 281.167 139.375 279.317 138.021 277.437C136.593 275.459 135.226 273.452 134.015 271.323C133.37 270.177 132.785 269.004 132.102 267.905C131.295 266.627 130.156 265.81 128.469 265.839C127.55 265.936 126.63 266.225 125.83 266.862C124.19 268.164 109.935 279.652 109.637 279.832C109.278 280.041 109.4 280.198 109.612 280.41C112.015 282.839 137.661 308.689 139.028 310.078C139.265 310.33 139.388 310.296 139.553 310.044C139.719 309.814 145.613 302.443 147.352 300.876C148.165 300.151 148.789 300.064 149.731 300.604C149.978 300.748 150.104 300.735 150.314 300.521C151.605 299.108 152.893 297.673 154.207 296.278C154.532 295.946 154.452 295.784 154.175 295.558Z" fill="black"/>
</g>
<defs>
<clipPath id="clip0">
<rect width="311" height="355" fill="white"/>
</clipPath>
</defs>
</svg>
