<svg width="105" height="120" viewBox="0 0 105 120" fill="none" xmlns="http://www.w3.org/2000/svg">
<g clip-path="url(#clip0)">
<path d="M52.8468 120L51.0292 119.089C34.196 110.641 21.9207 99.3304 13.5041 84.4994C3.25136 66.4205 -1.09209 43.6577 0.231453 14.9155L0.371263 11.8367L52.3994 0L104.502 11.4612L104.67 14.5307C106.264 43.3667 102.097 66.1953 91.9378 84.321C83.6796 99.0488 71.4788 110.426 54.6457 119.08L52.8468 120Z" fill="#575195"/>
<path d="M53.9495 42.4966C51.357 42.506 49.2385 41.081 49.2478 38.156C49.2663 35.2498 51.3942 33.7685 53.9867 33.7591C56.5606 33.7498 58.6978 35.2216 58.6885 38.1185C58.6792 41.0529 56.5234 42.4966 53.9495 42.4966ZM54.0332 29.9904C49.8703 29.9998 46.1256 32.9435 46.0978 38.1185C46.0699 43.2748 49.796 46.1529 53.9588 46.1341C58.0938 46.1248 61.8199 43.2279 61.8478 38.0435C61.8663 32.8966 58.1681 29.981 54.0332 29.9904Z" fill="#231F20"/>
<path d="M86.0907 42.403C83.4982 42.4124 81.3796 40.9874 81.3889 38.0624C81.4075 35.1562 83.5354 33.6749 86.1279 33.6655C88.7018 33.6562 90.8389 35.128 90.8296 38.0249C90.8203 40.9499 88.6646 42.3937 86.0907 42.403ZM86.1743 29.8874C82.0115 29.8968 78.2668 32.8405 78.2389 38.0155C78.211 43.1718 81.9372 46.0499 86.1 46.0312C90.235 46.0218 93.9611 43.1249 93.9889 37.9405C94.0075 32.7937 90.3093 29.878 86.1743 29.8874Z" fill="#231F20"/>
<path d="M59.5991 51.478L59.6177 48.8718L55.8451 48.8811L55.8358 51.4874H56.0774C56.5049 51.4874 56.6628 51.6468 56.6628 52.1155L56.6535 53.5218L51.2642 53.5405L51.2734 52.0218C51.2734 51.6561 51.4593 51.4968 51.8496 51.4968H52.054L52.0633 48.8905L48.2257 48.8999L48.2164 51.5061H48.3743C48.7832 51.5061 48.9783 51.6655 48.9783 52.0218L48.9504 57.1686C48.9504 57.628 48.7832 57.8061 48.3465 57.8061H48.1885L48.1792 60.3655L52.0168 60.3561L52.0261 57.7968H51.8217C51.3942 57.7968 51.2549 57.628 51.2549 57.1686L51.2642 55.5749L56.6535 55.5561L56.6442 57.1686C56.6442 57.6093 56.477 57.7874 56.0496 57.7874H55.808L55.7987 60.3468L59.5712 60.3374L59.5805 57.778H59.5712C59.1345 57.778 58.9487 57.6093 58.958 57.1593L58.9858 52.1155C58.9858 51.6655 59.1345 51.478 59.5991 51.478Z" fill="#231F20"/>
<path d="M32.8845 53.9907L30.6823 54C29.1491 54.0094 28.2385 53.7094 28.2385 52.7438C28.2478 51.8156 29.2049 51.5719 30.6916 51.5625H32.8938L32.8845 53.9907ZM35.9137 51.5532H36.1089L36.1181 48.9469L30.7195 48.9656C27.7646 48.975 25.8783 49.9313 25.869 52.2094C25.8597 53.8594 26.8168 54.8625 28.285 55.1719C27.3558 55.3688 26.7518 55.8844 26.5845 56.7563L26.5009 57.2625C26.4544 57.675 26.0363 57.8438 25.5996 57.8719L25.5903 60.4407L28.4801 60.4313L28.6659 58.3594C28.8239 56.8688 29.2327 55.9969 31.0912 55.9969L32.8659 55.9875L32.8566 57.225C32.8566 57.7313 32.6894 57.8625 32.169 57.8625H32.0389L32.0297 60.4219L36.0531 60.4125L36.0624 57.8531H35.8673C35.3283 57.8531 35.1518 57.7125 35.1518 57.225L35.1797 52.1906C35.1982 51.6938 35.3748 51.5532 35.9137 51.5532Z" fill="#231F20"/>
<path d="M39.1753 54.628C39.1846 52.4343 40.8571 51.5343 42.9107 51.5343C43.5611 51.5343 44.1837 51.5624 44.8063 51.6749L44.797 52.9499L47.0456 52.9405L47.0642 49.3874C45.8284 48.9186 44.258 48.7593 42.8271 48.7686C39.5841 48.778 36.8802 50.7655 36.8616 54.6374C36.843 58.0593 38.943 60.5624 42.8735 60.553C44.258 60.5436 45.8005 60.3843 47.0085 59.9436L47.0178 57.1874C45.8377 57.6186 44.2673 57.8905 42.92 57.8999C40.439 57.8905 39.166 56.6343 39.1753 54.628Z" fill="#231F20"/>
<path d="M68.8819 57.7407L68.8726 60.3001L72.7381 60.2907L72.7474 57.7313H72.5523C72.0133 57.7313 71.8368 57.5907 71.8368 57.1032L71.8461 54.2438H71.8368L71.8647 48.8251L68.9841 48.8344L63.7527 57.3938L63.7806 52.0969C63.7806 51.6094 63.9478 51.4594 64.4868 51.4594H64.5518L64.5611 48.8532L60.6956 48.8626L60.6863 51.4688H60.77C61.3368 51.4688 61.504 51.6094 61.504 52.0969L61.4669 60.3188L64.7191 60.3094L69.5881 52.3407L69.5695 57.1032C69.5509 57.5907 69.393 57.7407 68.8819 57.7407Z" fill="#231F20"/>
<path d="M84.604 51.3937H84.8549L84.8642 48.7875L80.4969 48.7968L80.4876 51.3562H81.1195L77.2168 54.4687L77.2261 51.9375C77.2261 51.5719 77.5699 51.4125 77.9788 51.4125H78.016L78.0252 48.8062L74.0668 48.8156L74.0575 51.4218H74.327C74.7359 51.4218 74.931 51.5812 74.931 51.9375L74.9031 57.0843C74.9031 57.5437 74.7359 57.7218 74.2991 57.7218H74.0297L74.0204 60.2812L77.9788 60.2718L77.9881 57.8718H77.7744C77.3469 57.8718 77.2075 57.7031 77.2075 57.2437V56.9718L79.3168 55.275L81.2124 57.8625H80.4505L80.4412 60.2718L84.8177 60.2625L84.827 57.7031H84.6412C84.1859 57.7031 83.9721 57.5625 83.6655 57.1875L81.2031 53.7937L83.396 52.05C83.8049 51.7125 84.1022 51.3937 84.604 51.3937Z" fill="#231F20"/>
<path d="M90.3093 54.5248L91.731 51.2155L93.1155 54.5155L90.3093 54.5248ZM97.2969 57.6561C96.9717 57.6561 96.8416 57.5623 96.6743 57.1967L93.1062 48.7592L90.4301 48.7686L86.7505 57.2248C86.5832 57.5905 86.4531 57.6842 86.1279 57.6842H85.8584L85.8491 60.2436L89.6774 60.2342L89.6867 57.7217H88.9434L89.473 56.4842L93.9425 56.4748L94.4628 57.703H93.6637L93.6544 60.2155L97.5571 60.2061L97.5664 57.6467L97.2969 57.6561Z" fill="#231F20"/>
<path d="M24.2615 51.5814H24.4102L24.4194 48.9752L20.1916 48.9845L17.5248 57.3752L14.9509 49.0033L10.6115 49.0127L10.6022 51.6283H10.8531C11.392 51.6283 11.5686 51.7689 11.5686 52.2564L11.55 57.2908C11.55 57.7783 11.3641 57.9189 10.8252 57.9283H10.565L10.5557 60.4877L14.4584 60.4783L14.4677 58.0783H14.4305C13.9102 58.0783 13.7429 57.9377 13.7522 57.4502L13.7708 52.8658L16.1217 60.4877L18.7699 60.4783L21.223 52.9127L21.2044 57.4408C21.2044 57.9283 21.0371 58.0783 20.5168 58.0783H20.4425L20.4332 60.4877L24.3823 60.4783L24.3916 57.9189H24.2429C23.6854 57.9189 23.5367 57.7783 23.546 57.2908L23.5739 52.2564C23.5646 51.7314 23.7132 51.5908 24.2615 51.5814Z" fill="#231F20"/>
<path d="M45.5775 42.375C44.9735 42.375 44.797 42.2719 44.5554 41.7282L39.7793 30.2532L36.0253 30.2625L31.2213 41.7469C30.9704 42.2907 30.8868 42.4219 30.162 42.4219H30.0319L30.0133 46.0032L35.1239 45.9844L35.1425 42.4688H34.1855L37.8279 33.7688L41.3683 42.45H40.4204L40.4018 45.9657L45.6797 45.9469L45.6983 42.3657H45.5775V42.375Z" fill="#231F20"/>
<path d="M17.4412 38.128C17.4505 35.1186 19.7456 33.8905 22.5611 33.8811C23.4531 33.8811 24.308 33.9186 25.1536 34.0686L25.1443 35.5311L28.2292 35.5218L28.2571 30.9374C26.5567 30.2905 24.4102 30.0843 22.4496 30.0936C17.9987 30.103 14.2912 32.8311 14.2726 38.1374C14.254 42.8155 17.116 46.2561 22.5054 46.2374C24.4009 46.228 26.5102 46.0124 28.1642 45.3936L28.1828 41.6249C26.566 42.2155 24.4195 42.5905 22.5611 42.5999C19.1602 42.6093 17.4226 40.8843 17.4412 38.128Z" fill="#231F20"/>
<path d="M70.1828 42.3656L67.0513 42.375L67.0699 39.3657L70.2013 39.3563C72.6823 39.3469 73.7602 39.7594 73.7509 40.8657C73.7416 41.9625 72.6637 42.3563 70.1828 42.3656ZM67.0885 33.75L70.062 33.7407C72.3385 33.7313 73.4628 34.0594 73.4536 35.1563C73.4443 36.2625 72.3292 36.5907 70.0434 36.6L67.0699 36.6094L67.0885 33.75ZM73.6487 37.9313C75.6372 37.4438 76.585 36.0844 76.5943 34.2375C76.6128 30.8157 73.435 30.15 70.8889 30.1594L62.9257 30.1875L62.9071 33.7688H63.3531C63.7527 33.7688 63.9292 33.9 63.9292 34.4156L63.892 41.7469C63.892 42.2438 63.7527 42.3938 63.3066 42.4031H62.8606L62.842 45.9188L70.8704 45.8907C73.6208 45.8813 76.9845 44.85 76.9938 41.4469C77.0124 39.3938 75.5443 38.1375 73.6487 37.9313Z" fill="#231F20"/>
<path d="M53.0947 42.3373C50.5022 42.3467 48.3837 40.9217 48.393 37.9967C48.4115 35.0905 50.5394 33.6092 53.1319 33.5998C55.7058 33.5905 57.843 35.0624 57.8337 37.9593C57.8151 40.8937 55.6686 42.3373 53.0947 42.3373ZM53.1784 29.8311C49.0155 29.8405 45.2708 32.7843 45.243 37.9593C45.2151 43.1155 48.9412 45.9937 53.104 45.9749C57.239 45.9656 60.9651 43.0686 60.993 37.8842C61.0115 32.7373 57.3133 29.8217 53.1784 29.8311Z" fill="white"/>
<path d="M85.2358 42.2437C82.6434 42.2531 80.5248 40.8281 80.5341 37.9031C80.5526 34.9969 82.6804 33.5156 85.2729 33.5062C87.8468 33.4969 89.9841 34.9687 89.9748 37.8656C89.9562 40.7906 87.8097 42.2344 85.2358 42.2437ZM85.3195 29.7281C81.1566 29.7375 77.4119 32.6812 77.3841 37.8562C77.3562 43.0125 81.0823 45.8906 85.2451 45.8719C89.3801 45.8625 93.1062 42.9656 93.1341 37.7812C93.1527 32.6344 89.4544 29.7187 85.3195 29.7281Z" fill="white"/>
<path d="M58.7443 51.3188L58.7629 48.7125L54.9903 48.7219L54.981 51.3282H55.2226C55.6501 51.3282 55.808 51.4875 55.808 51.9563L55.7987 53.3625L50.4094 53.3813L50.4187 51.8625C50.4187 51.4969 50.6045 51.3375 50.9948 51.3375H51.1992L51.2085 48.7313L47.3709 48.7407L47.3616 51.3469H47.5195C47.9284 51.3469 48.1235 51.5063 48.1235 51.8625L48.0956 57.0094C48.0956 57.4688 47.9284 57.6469 47.4917 57.6469H47.3337L47.3244 60.2063L51.162 60.1969L51.1713 57.6375H50.9669C50.5394 57.6375 50.4001 57.4688 50.4001 57.0094L50.4094 55.4157L55.7987 55.3969L55.7894 57.0094C55.7894 57.45 55.6222 57.6282 55.1948 57.6282H54.9532L54.9439 60.1875L58.7164 60.1782L58.7257 57.6188H58.7164C58.2797 57.6188 58.0939 57.45 58.1032 57L58.131 51.9563C58.1217 51.5063 58.2704 51.3188 58.7443 51.3188Z" fill="white"/>
<path d="M32.0203 53.8406L29.8181 53.85C28.2849 53.8593 27.3743 53.5593 27.3743 52.5937C27.3836 51.6656 28.3407 51.4218 29.8274 51.4125L32.0296 51.4031L32.0203 53.8406ZM35.0495 51.3937H35.2447L35.2539 48.7875L29.8553 48.8062C26.9004 48.8156 25.0141 49.7719 25.0048 52.05C24.9955 53.7 25.9526 54.7031 27.4208 55.0125C26.4916 55.2093 25.8876 55.725 25.7203 56.5968L25.6367 57.1031C25.5902 57.5156 25.1721 57.6844 24.7354 57.7125L24.7261 60.2812L27.6159 60.2718L27.8017 58.2C27.9597 56.7094 28.3686 55.8375 30.227 55.8375L32.0017 55.8281L31.9924 57.0656C31.9924 57.5718 31.8252 57.7031 31.3048 57.7031H31.1747L31.1655 60.2625L35.1889 60.2531L35.1982 57.6937H35.0031C34.4641 57.6937 34.2876 57.5531 34.2876 57.0656L34.3155 52.0312C34.334 51.5343 34.5106 51.3937 35.0495 51.3937Z" fill="white"/>
<path d="M38.3204 54.4688C38.3297 52.275 40.0022 51.375 42.0558 51.375C42.7062 51.375 43.3288 51.4031 43.9513 51.5156L43.942 52.7906L46.1907 52.7813L46.2093 49.2281C44.9735 48.7594 43.4031 48.6 41.9721 48.6094C38.7292 48.6188 36.0252 50.6063 36.0067 54.4781C35.9881 57.9 38.0881 60.4031 42.0186 60.3938C43.4031 60.3844 44.9456 60.225 46.1535 59.7844L46.1628 57.0282C44.9828 57.4594 43.4124 57.7313 42.0651 57.7406C39.5748 57.7313 38.3111 56.475 38.3204 54.4688Z" fill="white"/>
<path d="M68.0177 57.5815L68.0084 60.1408L71.8739 60.1315L71.8831 57.5721H71.688C71.1491 57.5721 70.9725 57.4315 70.9725 56.944L70.9818 54.0846H70.9725L71.0004 48.6658L68.1199 48.6752L62.8885 57.2346L62.9163 51.9377C62.9163 51.4502 63.0836 51.3002 63.6225 51.3002H63.6876L63.6969 48.694L59.8314 48.7033L59.8221 51.3096H59.9057C60.4725 51.3096 60.6398 51.4502 60.6398 51.9377L60.6026 60.1596L63.8548 60.1502L68.7239 52.1815L68.7053 56.944C68.696 57.4315 68.5287 57.5815 68.0177 57.5815Z" fill="white"/>
<path d="M83.7492 51.2345H84L84.0093 48.6282L79.6421 48.6376L79.6328 51.197H80.2646L76.362 54.3095L76.3713 51.7782C76.3713 51.4126 76.7151 51.2532 77.1239 51.2532H77.1611L77.1704 48.647L73.212 48.6564L73.2027 51.2626H73.4722C73.881 51.2626 74.0762 51.422 74.0762 51.7782L74.0483 56.9251C74.0483 57.3845 73.881 57.5626 73.4443 57.5626H73.1748L73.1655 60.122L77.1239 60.1126V57.7126H76.9102C76.4828 57.7126 76.3434 57.5439 76.3434 57.0845V56.8126L78.4527 55.1157L80.3483 57.7032H79.5863L79.577 60.1126L83.9536 60.1032L83.9629 57.5439H83.777C83.3217 57.5439 83.108 57.4032 82.8014 57.0282L80.339 53.6345L82.5319 51.8907C82.95 51.5532 83.2381 51.2345 83.7492 51.2345Z" fill="white"/>
<path d="M89.4452 54.3654L90.8668 51.056L92.2514 54.356L89.4452 54.3654ZM96.4328 57.4967C96.1075 57.4967 95.9775 57.4029 95.8102 57.0373L92.2421 48.5998L89.566 48.6092L85.8863 57.0654C85.7191 57.431 85.589 57.5248 85.2637 57.5248H84.9943L84.985 60.0842L88.8133 60.0748L88.8226 57.5623H88.0792L88.6089 56.3248L93.0783 56.3154L93.5987 57.5435H92.7996L92.7903 60.056L96.6929 60.0467L96.7022 57.4873L96.4328 57.4967Z" fill="white"/>
<path d="M23.4067 51.4313H23.5553L23.5646 48.8251L19.3368 48.8344L16.6699 57.2251L14.096 48.8532L9.75667 48.8626L9.74737 51.4782H10.0076C10.5465 51.4782 10.723 51.6188 10.723 52.1063L10.7045 57.1407C10.7045 57.6282 10.5186 57.7688 9.97967 57.7782H9.7195L9.71021 60.3376L13.6129 60.3282L13.6222 57.9282H13.585C13.0646 57.9282 12.8974 57.7876 12.9067 57.3001L12.9252 52.7157L15.2668 60.3376L17.9151 60.3282L20.3682 52.7626L20.3496 57.2907C20.3496 57.7782 20.1823 57.9282 19.662 57.9282H19.5876L19.5783 60.3376L23.5275 60.3282L23.5368 57.7688H23.3881C22.8306 57.7688 22.6819 57.6282 22.6912 57.1407L22.7191 52.1063C22.7005 51.5719 22.8491 51.4313 23.4067 51.4313Z" fill="white"/>
<path d="M44.7133 42.2157C44.1093 42.2157 43.9327 42.1126 43.6911 41.5689L38.915 30.0939L35.161 30.1032L30.3664 41.5876C30.1155 42.1314 30.0318 42.2626 29.3071 42.2626H29.177L29.1584 45.8439L34.269 45.8251L34.2876 42.3095H33.3305L36.973 33.6095L40.5133 42.2907H39.5655L39.5469 45.8064L44.8248 45.7876L44.8433 42.2064H44.7133V42.2157Z" fill="white"/>
<path d="M16.577 37.9688C16.5863 34.9594 18.8814 33.7313 21.6969 33.7219C22.589 33.7219 23.4438 33.7594 24.2894 33.9094L24.2801 35.3719L27.3651 35.3625L27.3836 30.7781C25.6832 30.1313 23.5367 29.925 21.5761 29.9344C17.1252 29.9438 13.4177 32.6719 13.3991 37.9781C13.3806 42.6563 16.2425 46.0969 21.6319 46.0781C23.5275 46.0688 25.6367 45.8531 27.2907 45.2344L27.3093 41.4656C25.6925 42.0563 23.546 42.4313 21.6876 42.4406C18.3053 42.45 16.5677 40.725 16.577 37.9688Z" fill="white"/>
<path d="M69.3186 42.2063L66.1872 42.2157L66.2058 39.2063L69.3372 39.197C71.8182 39.1876 72.8961 39.6001 72.8868 40.7063C72.8775 41.8032 71.7996 42.197 69.3186 42.2063ZM66.2337 33.5907L69.2071 33.5813C71.4837 33.572 72.608 33.9001 72.5987 34.997C72.5894 36.1032 71.4744 36.4313 69.1885 36.4407L66.2151 36.4501L66.2337 33.5907ZM72.7846 37.772C74.7731 37.2845 75.7208 35.9251 75.7301 34.0782C75.7487 30.6563 72.5708 29.9907 70.0248 30.0001L62.0615 30.0282L62.0429 33.6095H62.489C62.8885 33.6095 63.0651 33.7407 63.0651 34.2563L63.0279 41.5876C63.0279 42.0845 62.8885 42.2345 62.4425 42.2438H61.9965L61.9779 45.7595L70.0062 45.7313C72.7567 45.722 76.1204 44.6907 76.1297 41.2876C76.1576 39.2345 74.6894 37.9782 72.7846 37.772Z" fill="white"/>
<path d="M50.3721 17.7279L55.8916 17.7186V18.5436L50.3721 18.5529V17.7279ZM50.3721 15.9748L55.8916 15.9654V16.7904L50.3721 16.7998V15.9748ZM65.9456 17.5967H66.9863V18.2154H65.9456V17.5967ZM65.9456 16.2092H66.9863V16.8279H65.9456V16.2092ZM65.9363 14.8779H66.977V15.4967H65.9363V14.8779ZM65.9363 13.3967H66.977V14.0154H65.9363V13.3967ZM65.9363 12.2248H66.977V12.8436H65.9363V12.2248ZM68.854 19.7904L70.8703 19.7811V20.3998L68.854 20.4092V19.7904ZM47.2407 23.1186L74.0296 23.0623C74.0018 22.5467 73.9832 22.0311 73.9646 21.5248H72.6358L72.5615 18.4029L68.5938 18.4123V17.7936L72.5522 17.7842L72.5336 16.7998L73.1562 16.4248L71.9111 16.0311L68.4358 14.9248L68.4265 12.2529L69.1885 11.9436L67.9898 11.3436V11.3529L64.0221 9.33735L59.6642 11.0061L59.1531 7.34985C59.1531 7.34985 58.131 7.34985 58.0473 7.34985C57.9637 7.34985 57.8336 11.6998 57.8336 11.6998L56.6814 12.1404V12.1311L55.427 12.6186L56.0681 12.9467V13.8279L62.8606 14.8404L62.8513 21.5436H61.9128L61.9035 15.7404L52.881 14.1654L52.5836 9.72169H52.2491L51.8774 13.9873L48.3465 13.3686L46.6088 13.8654L46.2 10.1998H45.819L45.6053 14.1561L44.2487 14.5404L43.9141 12.0842H43.4867L43.1243 14.8592L40.5969 15.5811L39.296 15.9092L40.123 16.4717L40.1323 21.5811L37.6049 21.5904C37.6327 22.1061 37.642 22.6217 37.6141 23.1279L43.1615 23.1186V21.5811L43.1522 19.2467L47.2221 19.2373L47.2314 21.5717L47.2407 23.1186Z" fill="black"/>
<path d="M9.73802 17.0721V17.5877H8.90174L8.89244 20.0533H8.26059L8.26988 17.5877L7.43359 17.5783L7.44289 17.0627L9.73802 17.0721Z" fill="black"/>
<path d="M10.5836 18.9658H11.4943L11.0482 17.6064H11.0389L10.5836 18.9658ZM10.212 20.0627H9.5708L10.7044 17.0814H11.392L12.4978 20.072H11.8566L11.6429 19.4252L10.4257 19.4158L10.212 20.0627Z" fill="black"/>
<path d="M16.0195 17.1002L16.0102 20.0814H15.4341L15.4434 18.1314H15.4341L14.5699 19.5845H14.3004L13.4549 18.122H13.4456L13.4363 20.072H12.8602L12.8695 17.0814H13.4642L14.4305 18.8439H14.4398L15.4248 17.0908L16.0195 17.1002Z" fill="black"/>
<path d="M17.8035 19.6125C18.138 19.6125 18.2867 19.4906 18.2867 19.1812C18.2867 18.9 18.1566 18.7781 17.7942 18.7687H17.3018V19.6125H17.8035ZM18.7606 17.1093V17.6156L17.311 17.6062V18.3H17.8592C18.6211 18.3 18.9093 18.6562 18.9093 19.1812C18.9093 19.7437 18.6027 20.0906 17.8407 20.0906L16.6792 20.0812L16.6884 17.0906L18.7606 17.1093Z" fill="black"/>
<path d="M21.1487 18.225C21.1487 17.7844 20.9535 17.5688 20.5447 17.5688C20.1358 17.5688 19.9314 17.775 19.9314 18.2157V18.9938C19.9314 19.4438 20.1266 19.6594 20.5354 19.6594C20.9443 19.6594 21.1487 19.4438 21.1487 18.9938V18.225ZM21.7805 18.225V19.0032C21.7805 19.6875 21.3345 20.1469 20.5354 20.1469C19.7456 20.1469 19.2996 19.6782 19.2996 18.9938V18.2157C19.2996 17.5219 19.7456 17.0719 20.5447 17.0719C21.3345 17.0719 21.7805 17.5313 21.7805 18.225Z" fill="black"/>
<path d="M22.942 18.3655H23.4531C23.7876 18.3655 23.9084 18.2436 23.9084 17.9811C23.9084 17.7373 23.7876 17.6155 23.4531 17.6155H22.942V18.3655ZM22.942 19.6311H23.5367C23.8712 19.6311 24.0292 19.5092 24.0292 19.2092C24.0292 18.928 23.8898 18.8061 23.5367 18.8061H22.9513L22.942 19.6311ZM24.0663 18.5436V18.553C24.4752 18.6561 24.6517 18.9186 24.6517 19.2561C24.6517 19.7905 24.3358 20.1186 23.5739 20.1092H22.3287L22.338 17.1186L23.4531 17.128C24.1871 17.128 24.4938 17.4748 24.4938 17.8967C24.4845 18.2155 24.373 18.4311 24.0663 18.5436Z" fill="black"/>
<path d="M27.2442 17.7655L26.7981 17.9436C26.7238 17.728 26.538 17.5874 26.2499 17.5874C25.8689 17.5874 25.6738 17.8218 25.6645 18.2155V19.0874C25.6645 19.4436 25.8596 19.6968 26.2406 19.7061C26.5287 19.7061 26.6959 19.5936 26.7981 19.3311L27.2442 19.4999C27.1048 19.9405 26.7517 20.1749 26.1849 20.1749C25.488 20.1749 25.0327 19.7436 25.0327 19.0874V18.2155C25.0327 17.5124 25.488 17.0905 26.1849 17.0999C26.7145 17.0999 27.1234 17.4093 27.2442 17.7655Z" fill="black"/>
<path d="M30.1619 17.5592H30.0597C29.8925 17.5592 29.7995 17.6342 29.7159 17.7748L29.3722 18.3092C29.2793 18.4498 29.1864 18.5342 29.0563 18.5905V18.5998C29.2235 18.6467 29.3442 18.7498 29.4186 18.8905L29.8181 19.5561C29.9018 19.6967 29.9948 19.753 30.1527 19.753H30.2456V20.128C30.1805 20.1467 30.0411 20.1561 29.9296 20.1561C29.5765 20.1561 29.3815 19.9967 29.2142 19.7248L28.7867 19.0123C28.7031 18.8717 28.6288 18.8248 28.443 18.8248H28.3221L28.3128 20.128H27.6902L27.6995 17.1373H28.3221L28.3128 18.3748H28.4336C28.5823 18.3748 28.6752 18.3186 28.7681 18.1873L29.1863 17.5217C29.3442 17.2686 29.5487 17.1186 29.874 17.1186C30.0041 17.1186 30.0969 17.128 30.1619 17.1373V17.5592Z" fill="black"/>
<path d="M31.3793 19.0501H32.2899L31.8439 17.6907H31.8346L31.3793 19.0501ZM31.0076 20.147H30.3665L31.5001 17.1657H32.1877L33.2934 20.1563H32.6523L32.4386 19.5095L31.2213 19.5001L31.0076 20.147Z" fill="black"/>
<path d="M35.2167 17.6529H34.7985C34.4269 17.6529 34.2782 17.7936 34.2782 18.1029C34.2782 18.4029 34.4083 18.5529 34.8078 18.5623H35.2167V17.6529ZM35.8393 17.1748L35.83 20.1654H35.2074L35.2167 18.9842H34.9751C34.8171 18.9842 34.7335 19.0404 34.6592 19.1811L34.3618 19.7811C34.2224 20.0623 33.9901 20.1842 33.6649 20.1842C33.572 20.1842 33.4605 20.1748 33.3954 20.1561V19.7717H33.4884C33.637 19.7717 33.7114 19.7248 33.7857 19.5842L34.0459 19.0779C34.1016 18.9654 34.176 18.8904 34.2968 18.8342V18.8248C33.8508 18.7311 33.6463 18.4404 33.6463 18.0467C33.6463 17.5311 33.9716 17.1748 34.7985 17.1748H35.8393Z" fill="black"/>
<path d="M78.2203 18.1312C78.2203 17.6905 78.0251 17.4749 77.607 17.4749C77.1981 17.4749 76.9937 17.6812 76.9937 18.1312V18.9093C76.9937 19.3593 77.1888 19.5749 77.607 19.5749C78.0158 19.5749 78.2203 19.3593 78.2203 18.9093V18.1312ZM78.8428 18.1312V18.9093C78.8428 19.5937 78.3968 20.053 77.607 20.053C76.8172 20.053 76.3712 19.5843 76.3712 18.8999V18.1218C76.3712 17.428 76.8172 16.978 77.607 16.978C78.4061 16.978 78.8521 17.4374 78.8428 18.1312Z" fill="black"/>
<path d="M80.6362 19.5374C80.9707 19.5374 81.1194 19.4062 81.1194 19.1062C81.1194 18.8249 80.9893 18.7031 80.6269 18.7031H80.1344V19.5468L80.6362 19.5374ZM81.5933 17.0343V17.5406H80.1437V18.2343H80.6919C81.4539 18.2343 81.7419 18.5812 81.7419 19.1156C81.7419 19.6781 81.4353 20.0249 80.6733 20.0249H79.5118L79.5211 17.0343H81.5933Z" fill="black"/>
<path d="M84.6783 20.0252H84.0464L84.0557 17.5315H83.2473L83.1916 18.4315C83.1079 19.744 82.8013 20.044 82.2809 20.044C82.1787 20.044 82.0858 20.0346 82.0115 20.0065V19.6221H82.0951C82.4203 19.6221 82.5318 19.4252 82.5969 18.3846L82.6898 17.0252L84.6969 17.0346L84.6783 20.0252Z" fill="black"/>
<path d="M86.1558 18.9374H87.0664L86.6204 17.578H86.6111L86.1558 18.9374ZM85.7934 20.0343H85.1522L86.2766 17.053H86.9642L88.0792 20.0437H87.4381L87.2243 19.3968H86.0071L85.7934 20.0343Z" fill="black"/>
<path d="M90.5417 17.6813L90.0957 17.8595C90.0214 17.6438 89.8355 17.5032 89.5475 17.5032C89.1572 17.5032 88.9714 17.7376 88.9621 18.1313V19.0032C88.9621 19.3595 89.1572 19.6126 89.5382 19.6126C89.8262 19.6126 89.9935 19.5001 90.0957 19.2376L90.5417 19.4063C90.4023 19.847 90.0492 20.0813 89.4824 20.0813C88.7855 20.0813 88.3302 19.6501 88.3302 19.0032V18.1313C88.3302 17.4376 88.7855 17.0063 89.4824 17.0063C90.0214 17.0157 90.4209 17.3157 90.5417 17.6813Z" fill="black"/>
<path d="M93.1526 17.0624V17.578H92.3163V20.0437H91.6845L91.6938 17.578H90.8575V17.053L93.1526 17.0624Z" fill="black"/>
<path d="M94.788 19.5749C95.1411 19.5749 95.2712 19.453 95.2712 19.1437C95.2712 18.853 95.1504 18.7312 94.7787 18.7312H94.2863V19.5749H94.788ZM94.2956 17.0624V18.2624H94.8531C95.615 18.2624 95.9031 18.6093 95.8938 19.1343C95.8938 19.6968 95.5964 20.0437 94.8252 20.0437H93.6637L93.673 17.053L94.2956 17.0624Z" fill="black"/>
<path d="M12.7587 67.9165L15.91 67.8975L17.2851 71.7683L18.4556 67.885L21.6742 67.8653L21.6765 69.1341L20.7676 69.1405L20.7835 73.2782L21.6925 73.2719L21.6948 74.5406L18.6108 74.5589L18.6085 73.2901L19.3288 73.2844L19.3164 68.868L18.8826 70.4026L17.7702 73.7636L16.8273 73.767L15.4692 70.2404L15.0385 68.9991L15.0534 73.3134L15.7944 73.3122L15.7967 74.581L12.7934 74.597L12.791 73.3283L13.6999 73.3219L13.684 69.1841L12.7751 69.1905L12.7587 67.9165Z" fill="black" stroke="black" stroke-width="0.241594" stroke-miterlimit="10"/>
<path d="M22.6198 74.5537L22.6175 73.2847L23.6213 73.2813L24.4253 71.9292C24.0041 71.7725 23.6555 71.5399 23.3647 71.2194C23.0814 70.9048 22.9328 70.5277 22.9323 70.0866C22.9331 69.4077 23.1776 68.8646 23.6741 68.4698C24.1699 68.0683 24.9033 67.8711 25.8731 67.8648L28.7963 67.8509L28.7987 69.12L27.8896 69.1263L27.9056 73.265L28.8147 73.2586L28.817 74.5276L25.8464 74.54L25.844 73.271L26.4506 73.2712L26.447 72.2399L25.6252 72.2433L24.4861 74.5492L22.6198 74.5537ZM25.8931 71.1681L26.4316 71.1624L26.4265 69.1198L25.888 69.1256C25.4094 69.1247 25.0416 69.2132 24.7912 69.3905C24.5408 69.5678 24.4137 69.8263 24.4167 70.1653C24.4175 70.4843 24.5449 70.728 24.793 70.9039C25.0486 71.0858 25.4145 71.1672 25.8931 71.1681Z" fill="black" stroke="black" stroke-width="0.241594" stroke-miterlimit="10"/>
<path d="M34.1017 68.9821C34.101 68.9754 34.0448 68.9545 33.9346 68.9329C33.8237 68.9045 33.6795 68.8799 33.5213 68.85C33.3563 68.8209 33.1929 68.8052 33.025 68.8103C32.3917 68.8131 31.9082 69.0164 31.5744 69.4202C31.2406 69.824 31.0743 70.4059 31.0756 71.1661C31.0783 71.9396 31.2494 72.5247 31.5969 72.934C31.9444 73.3432 32.4241 73.5409 33.0374 73.5404C33.226 73.5397 33.3984 73.5137 33.568 73.4608C33.7308 73.4087 33.9189 73.3402 34.1181 73.2501L34.3652 72.2315L35.5815 72.5099L35.2278 74.226C34.8627 74.4025 34.5132 74.5365 34.1794 74.6281C33.8522 74.7189 33.4733 74.7679 33.042 74.7685C32.3614 74.7698 31.7551 74.6473 31.2363 74.3997C30.7168 74.1454 30.3042 73.757 30.0109 73.2263C29.7177 72.6956 29.5698 72.0129 29.5679 71.1849C29.5674 70.4315 29.7064 69.7847 29.9931 69.2571C30.2732 68.7303 30.6802 68.3184 31.195 68.0301C31.7165 67.7412 32.3212 67.5991 33.0084 67.5971C33.473 67.5928 33.8761 67.6428 34.2102 67.7413C34.5444 67.8398 34.8903 67.9845 35.2427 68.1896L35.5881 69.8889L34.3646 70.1679L34.1017 68.9821Z" fill="black" stroke="black" stroke-width="0.241594" stroke-miterlimit="10"/>
<path d="M39.7838 67.5536C40.4437 67.5478 41.0248 67.6867 41.5323 67.9559C42.0407 68.2318 42.434 68.6291 42.7199 69.1538C43.0057 69.6785 43.1507 70.3343 43.1542 71.1146C43.1569 71.8881 43.0186 72.5416 42.7326 73.0758C42.4474 73.6167 42.0596 74.0197 41.5575 74.2997C41.0553 74.5797 40.4773 74.7189 39.8174 74.7246C39.1643 74.7296 38.5832 74.5907 38.0756 74.3215C37.5673 74.0456 37.1731 73.6416 36.8866 73.1102C36.6 72.5788 36.455 71.9229 36.4523 71.1494C36.4488 70.3692 36.5871 69.7157 36.8738 69.1882C37.1539 68.6615 37.5476 68.251 38.0505 67.9777C38.5526 67.6977 39.1299 67.5518 39.7838 67.5536ZM39.8011 68.7735C39.1879 68.774 38.7243 68.975 38.4172 69.3758C38.1101 69.7766 37.9579 70.3638 37.9606 71.1373C37.964 71.9175 38.1218 72.504 38.4279 72.9043C38.734 73.3046 39.2003 73.5037 39.8128 73.4965C40.426 73.496 40.8888 73.2882 41.2026 72.8867C41.5097 72.4859 41.6678 71.8913 41.6651 71.1178C41.6617 70.3375 41.504 69.751 41.1986 69.3574C40.8873 68.9713 40.421 68.7722 39.8011 68.7735Z" fill="black" stroke="black" stroke-width="0.241594" stroke-miterlimit="10"/>
<path d="M46.1815 67.779L53.5964 67.7392L53.5987 69.0081L52.5211 69.0129L52.537 73.1513L53.6147 73.1464L53.617 74.4153L50.4447 74.4299L50.4424 73.1609L51.1021 73.1552L51.0862 69.0169L48.6883 69.0265L48.7042 73.1648L49.3573 73.1598L49.3597 74.4287L46.1874 74.4432L46.185 73.1743L47.2627 73.1695L47.2467 69.0312L46.1757 69.0352L46.1815 67.779Z" fill="black" stroke="black" stroke-width="0.241594" stroke-miterlimit="10"/>
<path d="M57.6722 67.4741C58.332 67.4684 58.9198 67.6065 59.4207 67.8764C59.929 68.1523 60.3224 68.5497 60.6082 69.0744C60.8941 69.5991 61.0391 70.2549 61.0425 71.0351C61.0452 71.8087 60.9069 72.4621 60.621 72.9963C60.3357 73.5372 59.9413 73.941 59.4458 74.2203C58.9436 74.5003 58.3656 74.6394 57.7058 74.6451C57.0526 74.6501 56.4715 74.5113 55.9639 74.2421C55.4556 73.9662 55.0615 73.5622 54.7749 73.0307C54.4884 72.4993 54.3433 71.8435 54.3406 71.07C54.3372 70.2898 54.4755 69.6363 54.7622 69.1088C55.0422 68.582 55.4359 68.1716 55.9388 67.8983C56.4417 67.625 57.019 67.4791 57.6722 67.4741ZM57.6901 68.7007C57.0769 68.7013 56.6134 68.9023 56.3063 69.3031C55.9991 69.7039 55.8469 70.2911 55.8504 71.0713C55.8538 71.8515 56.0116 72.438 56.3177 72.8383C56.6237 73.2386 57.0901 73.4377 57.7026 73.4305C58.3158 73.43 58.7786 73.2222 59.0924 72.8207C59.3995 72.4199 59.5576 71.8253 59.5549 71.0517C59.5515 70.2715 59.3937 69.685 59.0884 69.2914C58.7756 68.8919 58.31 68.6995 57.6901 68.7007Z" fill="black" stroke="black" stroke-width="0.241594" stroke-miterlimit="10"/>
<path d="M64.0774 74.3768L64.0751 73.1077L64.9843 73.1013L64.9683 68.9623L64.0591 68.9687L64.0568 67.6995L67.041 67.6857C67.9368 67.6808 68.6141 67.8361 69.092 68.1425C69.564 68.4564 69.8005 68.8984 69.8029 69.4819C69.8058 69.821 69.7297 70.1146 69.5753 70.3694C69.4201 70.6175 69.2059 70.8179 68.9186 70.9654C69.2727 71.0616 69.5416 71.2421 69.7318 71.506C69.9221 71.7698 70.0123 72.106 70.0159 72.5129C70.019 73.1031 69.8256 73.5591 69.4418 73.8734C69.0586 74.1945 68.496 74.3523 67.7622 74.3595L64.0774 74.3768ZM66.4327 73.0958L67.4906 73.0932C67.8205 73.0904 68.0766 73.0279 68.2514 72.8997C68.4263 72.7716 68.5133 72.5786 68.5138 72.3342C68.5144 72.0898 68.4275 71.9094 68.2658 71.7849C68.0974 71.6611 67.8615 71.5992 67.5582 71.5991L66.4331 71.6024L66.4327 73.0958ZM66.4238 70.4562L67.5623 70.4514C67.8049 70.4515 67.9863 70.3838 68.1072 70.2549C68.228 70.126 68.2891 69.9427 68.2911 69.7117C68.29 69.2027 67.9125 68.9529 67.1654 68.9616L66.4241 68.9628L66.4238 70.4562Z" fill="black" stroke="black" stroke-width="0.241594" stroke-miterlimit="10"/>
<path d="M75.3918 68.8104C75.3911 68.8037 75.3349 68.7828 75.2248 68.7611C75.1139 68.7328 74.9697 68.7081 74.8114 68.6783C74.6465 68.6491 74.483 68.6334 74.3151 68.6386C73.6819 68.6413 73.1983 68.8446 72.8645 69.2484C72.5307 69.6522 72.3578 70.2349 72.3658 70.9943C72.3685 71.7679 72.5395 72.353 72.8871 72.7622C73.2346 73.1715 73.7143 73.3692 74.3275 73.3686C74.5162 73.368 74.6886 73.3419 74.8581 73.2891C75.021 73.237 75.209 73.1685 75.4082 73.0784L75.6554 72.0597L76.8717 72.3381L76.5179 74.0543C76.1528 74.2308 75.8034 74.3648 75.4762 74.4556C75.149 74.5464 74.7701 74.5955 74.3389 74.596C73.6583 74.5973 73.0519 74.4749 72.5332 74.2273C72.007 73.9737 71.601 73.5845 71.3077 73.0538C71.0145 72.5231 70.8666 71.8404 70.8647 71.0124C70.8642 70.259 71.0032 69.6122 71.2833 69.0854C71.5633 68.5586 71.9704 68.1466 72.4918 67.8577C73.0133 67.5687 73.618 67.4266 74.3052 67.4246C74.7698 67.4203 75.1729 67.4704 75.507 67.5688C75.8412 67.6673 76.1871 67.812 76.5395 68.0171L76.8849 69.7164L75.6614 69.9954L75.3918 68.8104Z" fill="black" stroke="black" stroke-width="0.241594" stroke-miterlimit="10"/>
<path d="M77.7397 67.6445L82.8795 67.621L83.5843 69.7146L82.3954 70.1256L81.972 68.8898L80.1063 68.9011L80.1084 70.2924L81.9408 70.2849L81.9417 71.5406L80.1093 71.5482L80.1149 73.0341L82.2839 73.023L82.6755 71.9068L83.8589 72.3178L83.188 74.2798L77.7456 74.3099L77.7432 73.0407L78.6524 73.0344L78.6505 68.9006L77.7413 68.9069L77.7397 67.6445Z" fill="black" stroke="black" stroke-width="0.241594" stroke-miterlimit="10"/>
<path d="M84.631 67.6174L87.7823 67.5984L89.1574 71.4692L90.3279 67.5859L93.5465 67.5662L93.5488 68.8349L92.6399 68.8413L92.6558 72.9791L93.5648 72.9727L93.5671 74.2415L90.4831 74.2597L90.4808 72.991L91.2011 72.9853L91.1888 68.5689L90.7549 70.1034L89.6425 73.4645L88.6996 73.4679L87.3415 69.9413L86.9109 68.6999L86.9257 73.0143L87.6667 73.0131L87.6691 74.2818L84.6657 74.2979L84.6633 73.0291L85.5723 73.0228L85.5563 68.885L84.6474 68.8913L84.631 67.6174Z" fill="black" stroke="black" stroke-width="0.241594" stroke-miterlimit="10"/>
<path d="M21.905 76.229L29.3199 76.1892L29.3222 77.4581L28.2446 77.4629L28.2605 81.6012L29.3382 81.5964L29.3405 82.8653L26.1682 82.8798L26.1659 81.6109L26.8323 81.6044L26.8164 77.4661L24.4184 77.4757L24.4344 81.614L25.0875 81.609L25.0899 82.8779L21.9175 82.8924L21.9152 81.6235L22.9928 81.6187L22.9769 77.4804L21.9059 77.4845L21.905 76.229Z" fill="black" stroke="black" stroke-width="0.241594" stroke-miterlimit="10"/>
<path d="M33.1609 76.1805C34.0501 76.1763 34.7376 76.3644 35.2028 76.7401C35.6747 77.1151 35.9088 77.6592 35.9123 78.3784C35.9114 79.1184 35.6831 79.6869 35.2132 80.0788C34.7433 80.4706 34.0638 80.6686 33.1746 80.6727L32.6153 80.674L32.6199 81.5899L33.6778 81.5873L33.6801 82.8564L30.272 82.8768L30.2697 81.6077L31.1655 81.6028L31.1496 77.4638L30.2537 77.4687L30.2514 76.1995L33.1609 76.1805ZM33.1608 79.5474C34.0026 79.5418 34.4207 79.1693 34.4202 78.4159C34.4172 77.7645 33.9984 77.4447 33.1566 77.4503L32.618 77.4561L32.6222 79.5532L33.1608 79.5474Z" fill="black" stroke="black" stroke-width="0.241594" stroke-miterlimit="10"/>
<path d="M35.7026 82.8464L35.7002 81.5775L36.8112 81.5689L38.4387 77.4237L37.563 77.4264L37.5606 76.1574L40.2611 76.1413L42.36 81.5337L43.3504 81.5318L43.3528 82.8007L40.369 82.8146L40.3667 81.5456L40.9192 81.5451L40.5796 80.5853L38.4109 80.5964L38.0774 81.5634L38.6973 81.5622L38.6996 82.8311L35.7026 82.8464ZM38.7421 79.6703L40.2577 79.6642L39.4984 77.5023L38.7421 79.6703Z" fill="black" stroke="black" stroke-width="0.241594" stroke-miterlimit="10"/>
<path d="M44.0753 82.8152L44.0729 81.5461L44.9821 81.5397L44.9662 77.4008L44.057 77.4071L44.0546 76.138L47.0388 76.1242C47.928 76.12 48.6119 76.2745 49.0899 76.581C49.5619 76.8949 49.7984 77.3369 49.8008 77.9204C49.8037 78.2595 49.7276 78.5531 49.5732 78.8079C49.418 79.056 49.2038 79.2564 48.9157 79.3971C49.2698 79.4934 49.5387 79.6738 49.729 79.9377C49.9192 80.2016 50.0095 80.5377 50.013 80.9446C50.0161 81.5348 49.8228 81.9909 49.4389 82.3052C49.0557 82.6263 48.4932 82.784 47.7593 82.7912L44.0753 82.8152ZM46.4372 81.5336L47.4951 81.531C47.825 81.5281 48.0811 81.4656 48.2552 81.3308C48.4301 81.2027 48.5171 81.0097 48.5176 80.7652C48.5182 80.5208 48.4313 80.3404 48.2696 80.2159C48.1012 80.0921 47.8653 80.0302 47.562 80.0301L46.4369 80.0334L46.4372 81.5336ZM46.4283 78.894L47.5668 78.8892C47.8094 78.8892 47.9908 78.8215 48.1117 78.6926C48.2325 78.5637 48.2936 78.3804 48.2956 78.1494C48.2945 77.6404 47.9171 77.3906 47.1699 77.3993L46.4287 77.4005L46.4283 78.894Z" fill="black" stroke="black" stroke-width="0.241594" stroke-miterlimit="10"/>
<path d="M50.8723 76.1112L53.8501 76.1049L53.851 77.3604L53.2445 77.3601L53.2573 80.9083L56.0572 76.0759L58.421 76.0633L58.4234 77.3322L57.5144 77.3386L57.5303 81.4768L58.4393 81.4705L58.4417 82.7394L55.4854 82.7569L55.483 81.488L56.0755 81.483L56.0657 77.9006L53.2694 82.7666L50.8989 82.7799L50.8966 81.511L51.8189 81.5031L51.8029 77.3648L50.8806 77.3727L50.8723 76.1112Z" fill="black" stroke="black" stroke-width="0.241594" stroke-miterlimit="10"/>
<path d="M59.8609 82.9618C59.8069 82.961 59.7596 82.9595 59.713 82.9647C59.6657 82.9632 59.5503 82.9557 59.3669 82.9422L59.3618 81.5853C59.7863 81.5855 60.1171 81.5282 60.3466 81.4076C60.5769 81.2937 60.7423 81.0784 60.8436 80.7685C60.9449 80.4585 61.0169 80.0025 61.0537 79.408L61.1937 77.3358L60.17 77.3414L60.1677 76.0725L66.4244 76.0397L66.4267 77.3086L65.3491 77.3135L65.365 81.4519L66.4427 81.4471L66.445 82.716L63.2727 82.7305L63.2703 81.4616L63.9101 81.4581L63.8942 77.3197L62.4459 77.3251L62.2735 79.7198C62.2284 80.3629 62.1273 80.9239 61.9709 81.4097C61.8078 81.8962 61.5659 82.2761 61.2309 82.5442C60.8975 82.8258 60.4408 82.9649 59.8609 82.9618Z" fill="black" stroke="black" stroke-width="0.241594" stroke-miterlimit="10"/>
<path d="M67.2073 82.7193L67.205 81.4504L68.3159 81.4418L69.9435 77.2966L69.0677 77.2992L69.0654 76.0303L71.7658 76.0141L73.8648 81.4065L74.8552 81.4047L74.8575 82.6736L71.8738 82.6874L71.8714 81.4185L72.4239 81.418L72.0844 80.4581L69.9157 80.4693L69.5822 81.4363L70.202 81.435L70.2044 82.704L67.2073 82.7193ZM70.2469 79.5432L71.7691 79.5363L71.0099 77.3744L70.2469 79.5432Z" fill="black" stroke="black" stroke-width="0.241594" stroke-miterlimit="10"/>
<path d="M75.5659 76.0128L78.7172 75.9938L80.0923 79.8646L81.2628 75.9813L84.4814 75.9616L84.4838 77.2303L83.5748 77.2367L83.5908 81.3745L84.4997 81.3681L84.5021 82.6369L81.4181 82.6551L81.4157 81.3864L82.1361 81.3807L82.1237 76.9642L81.6898 78.4988L80.5775 81.8599L79.6345 81.8633L78.2764 78.3367L77.8458 77.0953L77.8606 81.4097L78.6016 81.4085L78.604 82.6772L75.6006 82.6933L75.5983 81.4245L76.5072 81.4181L76.4912 77.2803L75.5823 77.2867L75.5659 76.0128Z" fill="black" stroke="black" stroke-width="0.241594" stroke-miterlimit="10"/>
<path d="M66.5375 89.866C66.3886 89.7377 66.2105 89.8787 66.0584 89.9954C65.6477 90.3048 59.142 96.7734 54.1336 101.775C53.5834 102.322 53.0466 102.861 52.5413 103.36C50.1279 105.772 48.3619 107.541 48.3358 107.565C48.2276 107.692 48.2634 107.832 48.3558 107.966C48.5732 108.274 49.1788 108.887 49.487 109.107C49.8114 109.346 49.9244 109.334 50.2235 109.051C50.2495 109.027 52.3702 106.89 54.236 104.981C54.8171 104.388 55.3729 103.826 55.8309 103.353C56.5021 102.664 56.9791 102.168 57.0353 102.09C57.1793 101.895 57.293 101.89 57.4753 102.065C57.8312 102.402 59.1405 103.747 59.4894 104.085C59.6007 104.196 59.6687 104.232 59.7967 104.089C60.1989 103.629 64.7434 98.6977 66.4204 92.9514C66.8051 91.63 66.775 90.093 66.5375 89.866Z" fill="black"/>
<path d="M58.8904 106.235C58.4785 105.839 57.2852 104.719 56.0381 103.562C55.9913 103.524 55.9271 103.523 55.8813 103.564L54.4348 105.04C54.389 105.081 54.3964 105.152 54.4368 105.198C55.348 106.074 56.1103 106.822 56.2465 106.966C57.0673 107.866 57.7548 109.341 58.3241 109.324C58.6314 109.328 59.4642 108.615 59.7648 108.346C60.6081 107.595 59.1677 106.501 58.8904 106.235ZM58.8976 107.343C58.8714 107.504 58.7427 107.639 58.5895 107.677C58.3037 107.743 58.0498 107.496 58.0989 107.21C58.1251 107.049 58.2538 106.913 58.4069 106.876C58.6857 106.811 58.9388 107.05 58.8976 107.343Z" fill="black"/>
<path d="M52.2253 100.298C52.1416 100.386 51.3033 101.324 50.9565 101.698C50.8925 101.77 50.9033 101.804 50.9664 101.863C51.0372 101.927 51.7023 102.563 52.5341 103.361C53.0386 102.854 53.5691 102.324 54.1264 101.776C53.2735 100.98 52.6254 100.372 52.5312 100.288C52.3886 100.152 52.3674 100.154 52.2253 100.298Z" fill="black"/>
<path d="M52.1155 99.9068C51.8888 99.7148 51.6804 99.4921 51.4664 99.2843C51.0554 98.8958 50.6711 98.4901 50.2798 98.0851C49.5214 97.3013 48.8023 96.4846 48.103 95.6515C47.598 95.0425 47.1128 94.4171 46.655 93.7816C46.1724 93.1128 45.7102 92.4346 45.3009 91.7148C45.0827 91.3275 44.885 90.9309 44.6542 90.5594C44.3814 90.1275 43.9962 89.8514 43.4263 89.8611C43.1156 89.8939 42.8045 89.9914 42.534 90.2071C41.9796 90.6469 37.1612 94.5303 37.0604 94.5913C36.9391 94.6616 36.9803 94.7149 37.0519 94.7865C37.8642 95.6077 46.5333 104.346 46.9955 104.815C47.0756 104.9 47.1172 104.889 47.1727 104.804C47.2289 104.726 49.2213 102.234 49.8092 101.705C50.0839 101.46 50.2949 101.43 50.6134 101.613C50.6969 101.661 50.7393 101.657 50.8104 101.585C51.2466 101.107 51.6822 100.622 52.1262 100.15C52.236 100.038 52.209 99.9834 52.1155 99.9068Z" fill="black"/>
</g>
<defs>
<clipPath id="clip0">
<rect width="105" height="120" fill="white"/>
</clipPath>
</defs>
</svg>
