<svg width="720" height="586" viewBox="0 0 720 586" fill="none" xmlns="http://www.w3.org/2000/svg">
<path fill-rule="evenodd" clip-rule="evenodd" d="M1003.05 96.8967C1010.86 112.477 1006.68 132.508 994.117 145.028C978.209 160.607 955.603 156.991 953.649 156.434C953.72 156.624 953.82 156.88 953.945 157.201C955.286 160.649 959.54 171.583 962.859 187.872C966.487 206.24 969.836 234.617 964.813 267.725C958.797 307.521 947.156 329.692 937.762 347.581L937.183 348.685L936.923 349.172C929.787 362.577 924.059 373.337 923.507 387.356C922.67 402.38 927.415 411.561 933.555 423.246C934.196 424.588 934.866 425.959 935.556 427.37C937.869 432.101 940.4 437.277 942.764 443.277C950.579 463.865 949.184 501.702 946.672 529.523C944.455 556.282 940.5 579.359 939.601 584.607C939.481 585.306 939.415 585.689 939.415 585.722C939.415 586 939.136 586 939.136 586L896.156 585.722C895.877 585.722 895.877 585.444 895.877 585.444C895.877 585.165 895.04 554.284 889.458 506.709C886.667 484.452 872.154 470.82 860.433 463.308C847.874 454.962 835.315 451.902 835.315 451.902C835.315 451.86 834.782 451.679 833.78 451.337C828.013 449.371 806.694 442.103 781.729 425.749C766.937 416.012 753.541 404.884 741.54 392.642C720.608 402.658 660.046 428.253 581.621 427.697C532.222 427.419 475.566 419.072 441.796 414.065C435.656 413.23 425.888 411.561 419.469 410.448V411.004C419.469 411.282 419.19 442.442 407.189 459.97C388.398 487.118 372.264 519.035 355.157 552.877L353.883 555.397C349.417 563.743 344.952 572.646 340.487 581.549H340.207L296.948 581.27H296.669C296.702 580.844 296.734 580.43 296.764 580.027C297.51 570.257 297.75 567.12 303.646 554.562C318.159 523.68 342.44 471.933 306.716 396.537C305.042 397.094 290.529 400.989 269.039 402.936C247.828 404.884 215.733 405.162 182.242 395.703C135.237 384.598 101.458 385.358 76.5264 385.92C75.8487 385.935 75.1776 385.95 74.5129 385.965C42.4175 387.078 26.5093 387.356 17.8575 361.204C12.5548 344.79 2.78673 308.622 0.274892 291.929C-0.562388 287.756 0.553945 284.139 3.06579 281.357C9.50935 274.677 24.0457 275.352 27.1111 275.495C27.3651 275.507 27.5403 275.515 27.6257 275.515C56.372 263.273 78.6992 226.549 92.0956 197.615C106.026 167.93 113.808 140.649 114.657 137.675C114.675 137.61 114.69 137.557 114.702 137.516C111.353 133.064 53.5812 52.6609 66.6984 43.2017H66.9776C105.213 47.3748 133.959 58.7816 151.263 67.4062C167.168 75.4598 176.679 83.058 179.175 85.0522C179.439 85.2625 179.624 85.4105 179.73 85.4901C230.246 64.3459 272.946 51.2698 314.252 44.8709C352.487 38.7502 387.374 38.472 427.842 38.1938H432.866C474.441 37.6521 515.753 29.4616 559.376 20.8129C560.556 20.5789 561.738 20.3445 562.922 20.11C605.344 11.4854 649.44 2.5826 696.327 0.356896C735.958 -1.31238 772.519 2.86078 805.173 13.1546C831.407 21.2228 855.13 33.1859 875.783 48.7658C910.39 74.6396 924.624 101.905 925.182 103.017C932.996 118.597 950.3 129.169 967.883 125.831C980.442 123.327 989.931 109.695 984.349 97.175C979.573 86.8602 967.483 82.3282 957.43 78.5597C956.908 78.364 956.391 78.1705 955.882 77.9782C970.395 76.5872 984.907 76.5873 996.071 87.4376C998.862 90.2197 1001.37 93.5581 1003.05 96.8967ZM429.78 581.689C429.78 581.689 418.453 549.672 398 522.629L433.871 453C459.672 516.101 471 582 471 582L429.78 581.689Z" fill="white"/>
<circle cx="146" cy="208" r="14" fill="#373456"/>
<path d="M404.408 121.609H408.606C409.393 121.609 410.18 120.822 410.18 120.035V115.837C410.18 115.05 409.393 114.262 408.606 114.262H404.408C403.62 114.262 402.833 115.05 402.833 115.837V120.035C402.833 120.822 403.358 121.609 404.408 121.609Z" fill="#5E5993"/>
<path d="M434.321 121.609H438.519C439.306 121.609 440.093 120.822 440.093 120.035V115.837C440.093 115.05 439.306 114.262 438.519 114.262H434.321C433.533 114.262 432.746 115.05 432.746 115.837V120.035C432.484 120.822 433.271 121.609 434.321 121.609Z" fill="#5E5993"/>
<path d="M471.58 121.609H477.353H478.927H483.126C483.913 121.609 484.7 120.822 484.7 120.035V115.837C484.7 115.05 483.913 114.262 483.126 114.262H477.353H475.779H471.58C470.793 114.262 470.006 115.05 470.006 115.837V120.035C470.006 120.822 470.793 121.609 471.58 121.609Z" fill="#5E5993"/>
<path d="M396.798 128.957H400.996C401.784 128.957 402.571 128.169 402.571 127.382V123.184C402.571 122.397 401.784 121.609 400.996 121.609H396.798C396.011 121.609 395.224 122.397 395.224 123.184V127.382C395.224 128.432 396.011 128.957 396.798 128.957Z" fill="#5E5993"/>
<path d="M426.711 128.957H430.909C431.697 128.957 432.484 128.169 432.484 127.382V123.184C432.484 122.397 431.697 121.609 430.909 121.609H426.711C425.924 121.609 425.137 122.397 425.137 123.184V127.382C425.137 128.432 425.924 128.957 426.711 128.957Z" fill="#5E5993"/>
<path d="M440.093 127.382C440.093 128.169 439.306 128.956 438.519 128.956H434.321C433.534 128.956 432.746 129.744 432.746 130.531V134.729C432.746 135.516 433.534 136.304 434.321 136.304H438.519C439.306 136.304 440.093 137.091 440.093 137.878V142.076C440.093 142.863 440.881 143.651 441.668 143.651H445.866C446.653 143.651 447.44 144.438 447.44 145.225V149.423C447.44 150.21 448.228 150.998 449.015 150.998H453.213C454 150.998 454.787 150.21 454.787 149.423V145.225C454.787 144.438 455.575 143.651 456.362 143.651H462.659H470.006H475.779C476.566 143.651 477.353 144.438 477.353 145.225V149.423C477.353 150.21 478.141 150.998 478.928 150.998H483.126C483.913 150.998 484.7 150.21 484.7 149.423V143.913V138.14C484.7 137.353 483.913 136.566 483.126 136.566H478.928C478.141 136.566 477.353 135.779 477.353 134.992V130.793C477.353 130.006 476.566 129.219 475.779 129.219H470.006H462.659H456.887C456.099 129.219 455.312 130.006 455.312 130.793V134.992C455.312 135.779 454.525 136.566 453.738 136.566H449.54C448.752 136.566 447.965 135.779 447.965 134.992V130.793C447.965 130.006 448.752 129.219 449.54 129.219H453.738C454.525 129.219 455.312 128.432 455.312 127.644V123.446C455.312 122.659 454.525 121.872 453.738 121.872H447.965H441.668C440.881 121.872 440.093 122.659 440.093 123.446V127.382Z" fill="#5E5993"/>
<path d="M389.451 136.566H393.649C394.436 136.566 395.224 135.779 395.224 134.991V130.793C395.224 130.006 394.436 129.219 393.649 129.219H389.451C388.664 129.219 387.877 130.006 387.877 130.793V134.991C387.877 135.779 388.401 136.566 389.451 136.566Z" fill="#5E5993"/>
<path d="M410.18 134.991C410.18 135.779 410.967 136.566 411.755 136.566H415.953C416.74 136.566 417.527 135.779 417.527 134.991V130.793C417.527 130.006 416.74 129.219 415.953 129.219H411.755C410.967 129.219 410.18 130.006 410.18 130.793V134.991Z" fill="#5E5993"/>
<path d="M417.527 143.913V149.686C417.527 150.473 416.74 151.26 415.953 151.26H410.18H404.408C403.62 151.26 402.833 152.047 402.833 152.834V158.607V164.904C402.833 165.692 403.62 166.479 404.408 166.479H408.606C409.393 166.479 410.18 165.692 410.18 164.904V160.706C410.18 159.919 410.967 159.132 411.755 159.132H415.953C416.74 159.132 417.527 159.919 417.527 160.706V164.904C417.527 165.692 418.315 166.479 419.102 166.479H423.3C424.087 166.479 424.874 165.692 424.874 164.904V159.132V153.359C424.874 152.572 425.662 151.785 426.449 151.785H430.647C431.434 151.785 432.221 152.572 432.221 153.359V159.132V164.904C432.221 165.692 433.009 166.479 433.796 166.479H437.994C438.781 166.479 439.568 165.692 439.568 164.904V159.132V151.785V146.012C439.568 145.225 438.781 144.438 437.994 144.438H433.796C433.009 144.438 432.221 143.65 432.221 142.863V138.665C432.221 137.878 431.434 137.091 430.647 137.091H424.874H419.102C418.315 137.091 417.527 137.878 417.527 138.665V143.913Z" fill="#5E5993"/>
<path d="M396.798 151.522H400.996C401.784 151.522 402.571 150.735 402.571 149.948V143.913V142.339V138.14C402.571 137.353 401.784 136.566 400.996 136.566H396.798C396.011 136.566 395.224 137.353 395.224 138.14V143.913V149.686C395.224 150.735 396.011 151.522 396.798 151.522Z" fill="#5E5993"/>
<path d="M411.755 174.088H415.953C416.74 174.088 417.527 173.301 417.527 172.514V168.316C417.527 167.528 416.74 166.741 415.953 166.741H411.755C410.967 166.741 410.18 167.528 410.18 168.316V172.514C410.18 173.301 410.967 174.088 411.755 174.088Z" fill="#5E5993"/>
<path d="M484.963 166.479V164.905V160.706C484.963 159.919 484.175 159.132 483.388 159.132H479.19C478.403 159.132 477.615 159.919 477.615 160.706V166.479V174.088V181.435V187.208C477.615 187.995 476.828 188.782 476.041 188.782H471.843C471.056 188.782 470.268 189.57 470.268 190.357V194.555C470.268 195.342 471.056 196.129 471.843 196.129H475.779C476.566 196.129 477.353 196.917 477.353 197.704V201.902C477.353 202.689 478.14 203.476 478.927 203.476H483.126C483.913 203.476 484.7 202.689 484.7 201.902V197.704C484.7 196.917 485.487 196.129 486.274 196.129H490.473C491.26 196.129 492.047 196.917 492.047 197.704V201.902C492.047 202.689 491.26 203.476 490.473 203.476H486.274C485.487 203.476 484.7 204.264 484.7 205.051V210.823V218.171V223.943C484.7 224.73 483.913 225.518 483.126 225.518H478.927C478.14 225.518 477.353 226.305 477.353 227.092V231.29C477.353 232.077 478.14 232.865 478.927 232.865H483.126C483.913 232.865 484.7 233.652 484.7 234.439V238.637C484.7 239.424 485.487 240.212 486.274 240.212H490.473C491.26 240.212 492.047 239.424 492.047 238.637V234.439C492.047 233.652 492.834 232.865 493.622 232.865H497.82C498.607 232.865 499.394 232.077 499.394 231.29V227.879C499.394 227.092 500.181 226.305 500.969 226.305H505.167C505.954 226.305 506.741 225.518 506.741 224.73V218.958V217.383V213.185C506.741 212.398 505.954 211.611 505.167 211.611H500.969C500.181 211.611 499.394 212.398 499.394 213.185V217.383C499.394 218.171 498.607 218.958 497.82 218.958H494.146C493.359 218.958 492.572 218.171 492.572 217.383V213.185C492.572 212.398 493.359 211.611 494.146 211.611H498.345C499.132 211.611 499.919 210.823 499.919 210.036V205.838C499.919 205.051 500.706 204.264 501.493 204.264H505.692C506.479 204.264 507.266 203.476 507.266 202.689V198.491C507.266 197.704 506.479 196.917 505.692 196.917H501.493C500.706 196.917 499.919 196.129 499.919 195.342V189.57V181.96V176.187C499.919 175.4 499.132 174.613 498.345 174.613H492.572H486.799C486.012 174.613 485.225 173.826 485.225 173.039V166.479H484.963Z" fill="#5E5993"/>
<path d="M372.92 174.088H365.573H359.801C359.013 174.088 358.226 174.875 358.226 175.663V179.861C358.226 180.648 357.439 181.435 356.652 181.435H352.454C351.666 181.435 350.879 180.648 350.879 179.861V175.663C350.879 174.875 350.092 174.088 349.305 174.088H343.532H336.185H329.625C328.838 174.088 328.051 174.875 328.051 175.663V181.435V187.208C328.051 187.995 328.838 188.782 329.625 188.782H333.824C334.611 188.782 335.398 187.995 335.398 187.208V183.01C335.398 182.223 336.185 181.435 336.972 181.435H341.171C341.958 181.435 342.745 182.223 342.745 183.01V188.782V194.555C342.745 195.342 343.532 196.129 344.319 196.129H348.518C349.305 196.129 350.092 195.342 350.092 194.555V190.357C350.092 189.57 350.879 188.782 351.666 188.782H355.865C356.652 188.782 357.439 189.57 357.439 190.357V194.555C357.439 195.342 356.652 196.129 355.865 196.129H351.666C350.879 196.129 350.092 196.917 350.092 197.704V201.902C350.092 202.689 350.879 203.476 351.666 203.476H355.865C356.652 203.476 357.439 204.264 357.439 205.051V209.249C357.439 210.036 358.226 210.823 359.013 210.823H363.212C363.999 210.823 364.786 210.036 364.786 209.249V203.476V196.392V190.619C364.786 189.832 365.573 189.045 366.36 189.045H370.559C371.346 189.045 372.133 188.258 372.133 187.47V183.272C372.133 182.485 372.92 181.698 373.708 181.698H378.693C379.48 181.698 380.267 182.485 380.267 183.272V187.47C380.267 188.258 381.055 189.045 381.842 189.045H386.04C386.827 189.045 387.614 188.258 387.614 187.47V183.272C387.614 182.485 388.402 181.698 389.189 181.698H393.387C394.174 181.698 394.961 180.911 394.961 180.123V174.351V166.741V164.905V160.706C394.961 159.919 394.174 159.132 393.387 159.132H389.189C388.402 159.132 387.614 159.919 387.614 160.706V166.479V172.252C387.614 173.039 386.827 173.826 386.04 173.826H380.267H372.92V174.088Z" fill="#5E5993"/>
<path d="M524.059 181.435H528.258C529.045 181.435 529.832 180.648 529.832 179.861V175.663C529.832 174.875 529.045 174.088 528.258 174.088H524.059C523.272 174.088 522.485 174.875 522.485 175.663V179.861C522.485 180.648 523.01 181.435 524.059 181.435Z" fill="#5E5993"/>
<path d="M395.224 187.208C395.224 187.995 396.011 188.782 396.798 188.782H400.996C401.784 188.782 402.571 187.995 402.571 187.208V183.01C402.571 182.222 401.784 181.435 400.996 181.435H396.798C396.011 181.435 395.224 182.222 395.224 183.01V187.208Z" fill="#5E5993"/>
<path d="M513.301 181.435H509.103C508.316 181.435 507.529 182.222 507.529 183.01V187.208C507.529 187.995 508.316 188.782 509.103 188.782H513.301C514.088 188.782 514.876 187.995 514.876 187.208V183.01C514.876 182.222 514.088 181.435 513.301 181.435Z" fill="#5E5993"/>
<path d="M378.693 189.045H374.495C373.707 189.045 372.92 189.832 372.92 190.619V194.817C372.92 195.605 373.707 196.392 374.495 196.392H378.693C379.48 196.392 380.267 195.605 380.267 194.817V190.619C380.267 189.57 379.48 189.045 378.693 189.045Z" fill="#5E5993"/>
<path d="M455.05 194.817C455.05 195.605 455.837 196.392 456.624 196.392H460.822C461.61 196.392 462.397 195.605 462.397 194.817V190.619C462.397 189.832 463.184 189.045 463.971 189.045H468.169C468.957 189.045 469.744 188.258 469.744 187.47V181.698V174.351V166.741V159.394V157.82V153.622C469.744 152.834 468.957 152.047 468.169 152.047H463.971C463.184 152.047 462.397 152.834 462.397 153.622V159.394V164.904C462.397 165.692 461.61 166.479 460.822 166.479H456.624C455.837 166.479 455.05 165.692 455.05 164.904V160.706C455.05 159.919 454.262 159.132 453.475 159.132H449.277C448.49 159.132 447.703 159.919 447.703 160.706V166.479V174.088V179.861C447.703 180.648 448.49 181.435 449.277 181.435H453.475C454.262 181.435 455.05 182.223 455.05 183.01V188.782V194.817Z" fill="#5E5993"/>
<path d="M522.485 190.619C522.485 189.832 521.698 189.045 520.91 189.045H516.712C515.925 189.045 515.138 189.832 515.138 190.619V194.817C515.138 195.605 515.925 196.392 516.712 196.392H520.91C521.698 196.392 522.485 195.605 522.485 194.817V190.619Z" fill="#5E5993"/>
<path d="M543.214 189.045H539.016C538.229 189.045 537.441 188.257 537.441 187.47V183.272C537.441 182.485 536.654 181.698 535.867 181.698H531.669C530.882 181.698 530.094 182.485 530.094 183.272V189.045V194.817C530.094 195.605 530.882 196.392 531.669 196.392H535.867C536.654 196.392 537.441 197.179 537.441 197.966V202.164C537.441 202.952 536.654 203.739 535.867 203.739H530.094H528.258H524.059C523.272 203.739 522.485 204.526 522.485 205.313V209.511C522.485 210.299 523.272 211.086 524.059 211.086H528.258C529.045 211.086 529.832 211.873 529.832 212.66V216.858C529.832 217.646 530.619 218.433 531.406 218.433H535.605C536.392 218.433 537.179 217.646 537.179 216.858V212.66C537.179 211.873 537.966 211.086 538.753 211.086H542.952C543.739 211.086 544.526 210.299 544.526 209.511V203.739V196.392V190.619C544.788 189.569 544.001 189.045 543.214 189.045Z" fill="#5E5993"/>
<path d="M380.267 202.164C380.267 202.952 381.055 203.739 381.842 203.739H386.04C386.827 203.739 387.614 202.952 387.614 202.164V197.966C387.614 197.179 386.827 196.392 386.04 196.392H381.842C381.055 196.392 380.267 197.179 380.267 197.966V202.164Z" fill="#5E5993"/>
<path d="M453.475 196.392H449.277C448.49 196.392 447.703 197.179 447.703 197.966V202.164C447.703 202.952 448.49 203.739 449.277 203.739H453.475C454.262 203.739 455.05 202.952 455.05 202.164V197.966C455.05 197.179 454.262 196.392 453.475 196.392Z" fill="#5E5993"/>
<path d="M341.171 203.739H335.398H333.824H329.625C328.838 203.739 328.051 204.526 328.051 205.313V209.512C328.051 210.299 328.838 211.086 329.625 211.086H335.398H336.972H341.171C341.958 211.086 342.745 210.299 342.745 209.512V205.313C342.745 204.526 342.22 203.739 341.171 203.739Z" fill="#5E5993"/>
<path d="M372.92 209.774C372.92 210.561 373.707 211.348 374.495 211.348H378.693C379.48 211.348 380.267 210.561 380.267 209.774V205.576C380.267 204.788 379.48 204.001 378.693 204.001H374.495C373.707 204.001 372.92 204.788 372.92 205.576V209.774Z" fill="#5E5993"/>
<path d="M342.745 217.121C342.745 217.908 343.532 218.695 344.319 218.695H350.092H351.666H355.865C356.652 218.695 357.439 217.908 357.439 217.121V212.923C357.439 212.135 356.652 211.348 355.865 211.348H350.092H348.518H344.582C343.794 211.348 343.007 212.135 343.007 212.923V217.121H342.745Z" fill="#5E5993"/>
<path d="M440.093 211.348V203.739V196.392V194.817V190.619C440.093 189.832 439.306 189.045 438.519 189.045H434.321C433.533 189.045 432.746 189.832 432.746 190.619V194.817C432.746 195.605 431.959 196.392 431.172 196.392H426.974C426.186 196.392 425.399 195.605 425.399 194.817V190.619C425.399 189.832 426.186 189.045 426.974 189.045H431.172C431.959 189.045 432.746 188.258 432.746 187.47V183.272C432.746 182.485 431.959 181.698 431.172 181.698H426.974C426.186 181.698 425.399 180.91 425.399 180.123V175.925C425.399 175.138 424.612 174.351 423.825 174.351H419.627C418.839 174.351 418.052 175.138 418.052 175.925V180.123C418.052 180.91 417.265 181.698 416.478 181.698H412.28C411.492 181.698 410.705 182.485 410.705 183.272V187.47C410.705 188.258 409.918 189.045 409.131 189.045H404.933C404.145 189.045 403.358 189.832 403.358 190.619V194.817C403.358 195.605 402.571 196.392 401.784 196.392H397.585C396.798 196.392 396.011 197.179 396.011 197.966V202.164C396.011 202.952 396.798 203.739 397.585 203.739H401.784C402.571 203.739 403.358 204.526 403.358 205.313V211.086V216.859C403.358 217.646 404.145 218.433 404.933 218.433H410.18H415.953C416.74 218.433 417.527 217.646 417.527 216.859V211.086V205.313C417.527 204.526 416.74 203.739 415.953 203.739H411.755C410.968 203.739 410.18 202.952 410.18 202.164V197.966C410.18 197.179 410.968 196.392 411.755 196.392H415.953C416.74 196.392 417.527 197.179 417.527 197.966V202.164C417.527 202.952 418.315 203.739 419.102 203.739H424.874H430.647C431.434 203.739 432.222 204.526 432.222 205.313V211.086V216.859C432.222 217.646 433.009 218.433 433.796 218.433H437.994C438.781 218.433 439.569 217.646 439.569 216.859V211.348H440.093Z" fill="#5E5993"/>
<path d="M426.711 226.305H430.909C431.697 226.305 432.484 225.517 432.484 224.73V220.532C432.484 219.745 431.697 218.958 430.909 218.958H426.711C425.924 218.958 425.137 219.745 425.137 220.532V224.73C425.137 225.517 425.924 226.305 426.711 226.305Z" fill="#5E5993"/>
<path d="M520.648 218.695H516.45C515.663 218.695 514.875 219.482 514.875 220.27V226.042V231.815C514.875 232.602 515.663 233.389 516.45 233.389H520.648C521.435 233.389 522.223 232.602 522.223 231.815V226.042V224.468V220.27C522.485 219.482 521.698 218.695 520.648 218.695Z" fill="#5E5993"/>
<path d="M415.953 233.652C416.74 233.652 417.527 232.865 417.527 232.077V227.879C417.527 227.092 416.74 226.305 415.953 226.305H411.755C410.967 226.305 410.18 227.092 410.18 227.879V232.077C410.18 232.865 410.967 233.652 411.755 233.652H415.953Z" fill="#5E5993"/>
<path d="M543.214 226.305H537.442H531.669C530.882 226.305 530.095 227.092 530.095 227.879V232.077C530.095 232.865 529.307 233.652 528.52 233.652H524.322C523.535 233.652 522.747 234.439 522.747 235.226V239.424C522.747 240.212 523.535 240.999 524.322 240.999H530.095H535.867C536.654 240.999 537.442 241.786 537.442 242.573V248.871V254.643C537.442 255.43 536.654 256.218 535.867 256.218H530.095H524.322C523.535 256.218 522.747 255.43 522.747 254.643V248.871V243.098C522.747 242.311 521.96 241.524 521.173 241.524H516.975C516.188 241.524 515.4 240.736 515.4 239.949V235.751C515.4 234.964 514.613 234.177 513.826 234.177H507.266H505.692H501.494C500.706 234.177 499.919 234.964 499.919 235.751V239.949C499.919 240.736 500.706 241.524 501.494 241.524H505.692C506.479 241.524 507.266 242.311 507.266 243.098V247.296C507.266 248.083 508.053 248.871 508.841 248.871H513.039C513.826 248.871 514.613 249.658 514.613 250.445V256.218V261.99C514.613 262.777 515.4 263.565 516.188 263.565H521.96H529.307H535.08C535.867 263.565 536.654 264.352 536.654 265.139V269.337C536.654 270.125 537.442 270.912 538.229 270.912H542.427C543.214 270.912 544.001 270.125 544.001 269.337V263.565V255.955V248.871V241.261V233.914V227.879C544.789 227.092 544.001 226.305 543.214 226.305Z" fill="#5E5993"/>
<path d="M335.398 250.445C335.398 249.658 334.611 248.871 333.824 248.871H329.625C328.838 248.871 328.051 249.658 328.051 250.445V254.643C328.051 255.43 328.838 256.218 329.625 256.218H333.824C334.611 256.218 335.398 255.43 335.398 254.643V250.445Z" fill="#5E5993"/>
<path d="M336.972 263.827H341.17C341.958 263.827 342.745 263.04 342.745 262.253V258.054C342.745 257.267 341.958 256.48 341.17 256.48H336.972C336.185 256.48 335.398 257.267 335.398 258.054V261.99C335.398 263.04 336.185 263.827 336.972 263.827Z" fill="#5E5993"/>
<path d="M333.824 263.827H329.625C328.838 263.827 328.051 264.614 328.051 265.401V269.6C328.051 270.387 328.838 271.174 329.625 271.174H333.824C334.611 271.174 335.398 270.387 335.398 269.6V265.401C335.398 264.352 334.611 263.827 333.824 263.827Z" fill="#5E5993"/>
<path d="M344.582 271.174H350.354H351.929H356.127C356.914 271.174 357.701 270.387 357.701 269.6V265.401C357.701 264.614 356.914 263.827 356.127 263.827H350.354H348.78H344.582C343.794 263.827 343.007 264.614 343.007 265.401V269.6C342.745 270.387 343.532 271.174 344.582 271.174Z" fill="#5E5993"/>
<path d="M374.495 263.827C373.707 263.827 372.92 264.614 372.92 265.401V269.6C372.92 270.387 373.707 271.174 374.495 271.174H378.693C379.48 271.174 380.267 270.387 380.267 269.6V265.401C380.267 264.614 379.48 263.827 378.693 263.827H374.495Z" fill="#5E5993"/>
<path d="M417.527 271.174V269.6V265.401C417.527 264.614 416.74 263.827 415.953 263.827H411.755C410.967 263.827 410.18 264.614 410.18 265.401V271.174V276.947C410.18 277.734 410.967 278.521 411.755 278.521H415.953C416.74 278.521 417.527 277.734 417.527 276.947V271.174Z" fill="#5E5993"/>
<path d="M432.484 276.947C432.484 277.734 433.271 278.521 434.058 278.521H438.256C439.044 278.521 439.831 277.734 439.831 276.947V271.174V263.827V256.218V254.643V250.445C439.831 249.658 439.044 248.871 438.256 248.871H434.058C433.271 248.871 432.484 249.658 432.484 250.445V254.643C432.484 255.43 431.697 256.218 430.909 256.218H426.711C425.924 256.218 425.137 255.43 425.137 254.643V250.445C425.137 249.658 425.924 248.871 426.711 248.871H430.909C431.697 248.871 432.484 248.083 432.484 247.296V243.098C432.484 242.311 431.697 241.524 430.909 241.524H426.711C425.924 241.524 425.137 240.736 425.137 239.949V235.751C425.137 234.964 424.35 234.177 423.562 234.177H419.364C418.577 234.177 417.79 234.964 417.79 235.751V239.949C417.79 240.736 417.003 241.524 416.215 241.524H410.18H402.833H395.224H389.451C388.664 241.524 387.877 240.736 387.877 239.949V235.751C387.877 234.964 388.664 234.177 389.451 234.177H393.649C394.437 234.177 395.224 233.389 395.224 232.602V227.879C395.224 227.092 396.011 226.305 396.798 226.305H400.996C401.784 226.305 402.571 225.518 402.571 224.73V220.532C402.571 219.745 401.784 218.958 400.996 218.958H396.798C396.011 218.958 395.224 218.171 395.224 217.383V213.185C395.224 212.398 394.437 211.611 393.649 211.611H389.451C388.664 211.611 387.877 212.398 387.877 213.185V218.958V224.73C387.877 225.518 387.09 226.305 386.302 226.305H382.104C381.317 226.305 380.53 227.092 380.53 227.879V232.077C380.53 232.865 379.743 233.652 378.955 233.652H374.757C373.97 233.652 373.183 232.865 373.183 232.077V227.879C373.183 227.092 373.97 226.305 374.757 226.305H378.693C379.48 226.305 380.267 225.518 380.267 224.73V220.532C380.267 219.745 379.48 218.958 378.693 218.958H374.495C373.707 218.958 372.92 218.171 372.92 217.383V213.185C372.92 212.398 372.133 211.611 371.346 211.611H367.148C366.36 211.611 365.573 212.398 365.573 213.185V218.958V226.567V232.34C365.573 233.127 364.786 233.914 363.999 233.914H357.701H350.354H342.745H336.972C336.185 233.914 335.398 233.127 335.398 232.34V226.567V224.993V220.794C335.398 220.007 334.611 219.22 333.824 219.22H329.625C328.838 219.22 328.051 220.007 328.051 220.794V226.567V233.914V239.687C328.051 240.474 328.838 241.261 329.625 241.261H333.824C334.611 241.261 335.398 242.048 335.398 242.836V247.034C335.398 247.821 336.185 248.608 336.972 248.608H341.171C341.958 248.608 342.745 247.821 342.745 247.034V242.836C342.745 242.048 343.532 241.261 344.319 241.261H350.092H355.865C356.652 241.261 357.439 242.048 357.439 242.836V247.034C357.439 247.821 356.652 248.608 355.865 248.608H351.666C350.879 248.608 350.092 249.395 350.092 250.183V254.381C350.092 255.168 350.879 255.955 351.666 255.955H355.865C356.652 255.955 357.439 256.742 357.439 257.53V261.99C357.439 262.778 358.226 263.565 359.013 263.565H363.212C363.999 263.565 364.786 262.778 364.786 261.99V256.218V248.871V243.098C364.786 242.311 365.573 241.524 366.36 241.524H372.133H378.693C379.48 241.524 380.267 242.311 380.267 243.098V247.296C380.267 248.083 379.48 248.871 378.693 248.871H374.495C373.707 248.871 372.92 249.658 372.92 250.445V254.643C372.92 255.43 373.707 256.218 374.495 256.218H380.267H387.877H393.649C394.437 256.218 395.224 255.43 395.224 254.643V250.445C395.224 249.658 396.011 248.871 396.798 248.871H400.996C401.784 248.871 402.571 249.658 402.571 250.445V254.643C402.571 255.43 403.358 256.218 404.145 256.218H410.18H415.953C416.74 256.218 417.527 257.005 417.527 257.792V261.99C417.527 262.778 418.314 263.565 419.102 263.565H424.874H430.647C431.434 263.565 432.221 264.352 432.221 265.139V270.912V276.947H432.484Z" fill="#5E5993"/>
<path d="M396.798 278.521H400.996C401.783 278.521 402.571 277.734 402.571 276.947V272.748C402.571 271.961 401.783 271.174 400.996 271.174H395.224H389.451C388.664 271.174 387.877 271.961 387.877 272.748V278.521V286.131V293.478V299.25C387.877 300.037 388.664 300.825 389.451 300.825H395.224H400.996C401.783 300.825 402.571 300.037 402.571 299.25V295.052C402.571 294.265 403.358 293.478 404.145 293.478H410.18H411.754H415.953C416.74 293.478 417.527 292.69 417.527 291.903V287.705C417.527 286.918 416.74 286.131 415.953 286.131H410.18H402.833H397.06C396.273 286.131 395.486 285.343 395.486 284.556V280.358C395.224 279.308 396.011 278.521 396.798 278.521Z" fill="#5E5993"/>
<path d="M430.909 278.521H426.711C425.924 278.521 425.137 279.308 425.137 280.096V284.294C425.137 285.081 425.924 285.868 426.711 285.868H430.909C431.697 285.868 432.484 285.081 432.484 284.294V280.358C432.484 279.308 431.959 278.521 430.909 278.521Z" fill="#5E5993"/>
<path d="M499.919 280.358C499.919 279.571 499.132 278.784 498.345 278.784H494.146C493.359 278.784 492.572 279.571 492.572 280.358V284.556C492.572 285.343 493.359 286.131 494.146 286.131H498.345C499.132 286.131 499.919 285.343 499.919 284.556V280.358Z" fill="#5E5993"/>
<path d="M543.214 278.521H539.016C538.229 278.521 537.442 277.734 537.442 276.947V272.748C537.442 271.961 536.654 271.174 535.867 271.174H531.669C530.882 271.174 530.094 271.961 530.094 272.748V278.521V284.294C530.094 285.081 529.307 285.868 528.52 285.868H524.322C523.535 285.868 522.747 286.655 522.747 287.443V291.641C522.747 292.428 523.535 293.215 524.322 293.215H530.094H537.704H543.477C544.264 293.215 545.051 292.428 545.051 291.641V285.868V280.358C544.789 279.308 544.001 278.521 543.214 278.521Z" fill="#5E5993"/>
<path d="M447.44 291.903C447.44 292.69 448.227 293.478 449.015 293.478H453.213C454 293.478 454.787 292.69 454.787 291.903V287.705C454.787 286.918 455.574 286.131 456.362 286.131H460.56C461.347 286.131 462.134 285.343 462.134 284.556V278.784V271.437V265.664C462.134 264.877 462.921 264.09 463.709 264.09H467.907C468.694 264.09 469.481 263.302 469.481 262.515V258.317C469.481 257.53 468.694 256.742 467.907 256.742H463.709C462.921 256.742 462.134 255.955 462.134 255.168V250.97C462.134 250.183 462.921 249.395 463.709 249.395H469.481H471.056H475.779C476.566 249.395 477.353 248.608 477.353 247.821V243.623C477.353 242.836 476.566 242.048 475.779 242.048H470.006H464.233C463.446 242.048 462.659 241.261 462.659 240.474V236.276C462.659 235.489 461.872 234.701 461.085 234.701H456.886C456.099 234.701 455.312 233.914 455.312 233.127V227.879C455.312 227.092 456.099 226.305 456.886 226.305H461.085C461.872 226.305 462.659 225.518 462.659 224.73V218.958V213.185C462.659 212.398 461.872 211.611 461.085 211.611H455.312H449.539C448.752 211.611 447.965 212.398 447.965 213.185V217.383C447.965 218.171 447.178 218.958 446.391 218.958H441.668C440.88 218.958 440.093 219.745 440.093 220.532V224.73C440.093 225.518 440.88 226.305 441.668 226.305H445.866C446.653 226.305 447.44 227.092 447.44 227.879V233.652V240.999V246.771C447.44 247.559 448.227 248.346 449.015 248.346H453.213C454 248.346 454.787 249.133 454.787 249.92V254.119C454.787 254.906 454 255.693 453.213 255.693H449.015C448.227 255.693 447.44 256.48 447.44 257.267V261.99C447.44 262.778 448.227 263.565 449.015 263.565H453.213C454 263.565 454.787 264.352 454.787 265.139V269.337C454.787 270.125 454 270.912 453.213 270.912H449.015C448.227 270.912 447.44 271.699 447.44 272.486V276.684C447.44 277.472 446.653 278.259 445.866 278.259H441.668C440.88 278.259 440.093 279.046 440.093 279.833V284.031C440.093 284.819 440.88 285.606 441.668 285.606H445.866C446.653 285.606 447.44 286.393 447.44 287.18V291.903Z" fill="#5E5993"/>
<path d="M499.919 302.661C499.919 301.874 500.706 301.087 501.493 301.087H507.266H513.039C513.826 301.087 514.613 301.874 514.613 302.661V306.86C514.613 307.647 515.4 308.434 516.187 308.434H520.386C521.173 308.434 521.96 307.647 521.96 306.86V301.087V295.314C521.96 294.527 521.173 293.74 520.386 293.74H516.187C515.4 293.74 514.613 292.953 514.613 292.166V286.393V280.358C514.613 279.571 515.4 278.784 516.187 278.784H520.386C521.173 278.784 521.96 277.996 521.96 277.209V273.011C521.96 272.224 521.173 271.436 520.386 271.436H516.187C515.4 271.436 514.613 270.649 514.613 269.862V265.664C514.613 264.877 513.826 264.089 513.039 264.089H508.84C508.053 264.089 507.266 263.302 507.266 262.515V258.317C507.266 257.53 506.479 256.742 505.692 256.742H501.493C500.706 256.742 499.919 255.955 499.919 255.168V248.871V247.296V243.098C499.919 242.311 499.132 241.524 498.345 241.524H494.146C493.359 241.524 492.572 242.311 492.572 243.098V248.871V254.643C492.572 255.43 491.785 256.218 490.998 256.218H486.799C486.012 256.218 485.225 255.43 485.225 254.643V250.445C485.225 249.658 484.438 248.871 483.651 248.871H479.452C478.665 248.871 477.878 249.658 477.878 250.445V256.218V263.827V271.174V278.521V284.294C477.878 285.081 477.091 285.868 476.304 285.868H472.105C471.318 285.868 470.531 286.655 470.531 287.443V293.478V299.25C470.531 300.037 471.318 300.825 472.105 300.825H475.779C476.566 300.825 477.353 301.612 477.353 302.399V306.597C477.353 307.384 476.566 308.172 475.779 308.172H471.58C470.793 308.172 470.006 307.384 470.006 306.597V302.399C470.006 301.612 469.219 300.825 468.432 300.825H464.233C463.446 300.825 462.659 300.037 462.659 299.25V295.052C462.659 294.265 461.872 293.478 461.085 293.478H456.886C456.099 293.478 455.312 294.265 455.312 295.052V299.25C455.312 300.037 454.525 300.825 453.738 300.825H449.539C448.752 300.825 447.965 301.612 447.965 302.399V308.172V315.519V321.291C447.965 322.079 448.752 322.866 449.539 322.866H453.738C454.525 322.866 455.312 322.079 455.312 321.291V317.093C455.312 316.306 456.099 315.519 456.886 315.519H462.659H470.006H477.615H484.963H486.537H490.735C491.522 315.519 492.31 314.732 492.31 313.944V309.746C492.31 308.959 491.522 308.172 490.735 308.172H486.537C485.75 308.172 484.963 307.384 484.963 306.597V302.399C484.963 301.612 485.75 300.825 486.537 300.825H490.735C491.522 300.825 492.31 301.612 492.31 302.399V306.597C492.31 307.384 493.097 308.172 493.884 308.172H498.082C498.869 308.172 499.657 307.384 499.657 306.597V302.661H499.919ZM492.31 293.478H486.537C485.75 293.478 484.963 292.69 484.963 291.903V286.131V278.521V272.748C484.963 271.961 485.75 271.174 486.537 271.174H492.31H499.919H505.692C506.479 271.174 507.266 271.961 507.266 272.748V278.521V286.131V291.903C507.266 292.69 506.479 293.478 505.692 293.478H499.919H492.31Z" fill="#5E5993"/>
<path d="M438.519 308.697H434.321C433.533 308.697 432.746 309.484 432.746 310.271V314.469C432.746 315.256 431.959 316.044 431.172 316.044H426.974C426.186 316.044 425.399 315.256 425.399 314.469V310.271C425.399 309.484 426.186 308.697 426.974 308.697H431.172C431.959 308.697 432.746 307.909 432.746 307.122V302.924C432.746 302.137 431.959 301.349 431.172 301.349H426.974C426.186 301.349 425.399 300.562 425.399 299.775V295.577C425.399 294.79 424.612 294.002 423.825 294.002H419.626C418.839 294.002 418.052 294.79 418.052 295.577V299.775C418.052 300.562 417.265 301.349 416.478 301.349H412.279C411.492 301.349 410.705 302.137 410.705 302.924V307.122C410.705 307.909 409.918 308.697 409.131 308.697H404.932C404.145 308.697 403.358 309.484 403.358 310.271V314.469C403.358 315.256 404.145 316.044 404.932 316.044H410.18H415.953C416.74 316.044 417.527 316.831 417.527 317.618V321.816C417.527 322.603 418.314 323.391 419.102 323.391H424.874H430.647C431.434 323.391 432.221 324.178 432.221 324.965V329.163C432.221 329.95 433.009 330.738 433.796 330.738H437.994C438.781 330.738 439.568 329.95 439.568 329.163V323.391V315.781V314.469V310.271C440.093 309.221 439.306 308.697 438.519 308.697Z" fill="#5E5993"/>
<path d="M543.214 308.696H539.016C538.229 308.696 537.442 309.484 537.442 310.271V316.043V321.816C537.442 322.603 536.654 323.391 535.867 323.391H531.669C530.882 323.391 530.095 324.178 530.095 324.965V329.163C530.095 329.95 530.882 330.738 531.669 330.738H537.442H543.214C544.001 330.738 544.789 329.95 544.789 329.163V323.391V315.781V314.469V310.271C544.789 309.221 544.001 308.696 543.214 308.696Z" fill="#5E5993"/>
<path d="M529.832 317.618C529.832 316.831 529.045 316.044 528.258 316.044H524.059C523.272 316.044 522.485 316.831 522.485 317.618V321.816C522.485 322.603 523.272 323.391 524.059 323.391H528.258C529.045 323.391 529.832 322.603 529.832 321.816V317.618Z" fill="#5E5993"/>
<path d="M415.953 323.653H410.18H402.833H397.061C396.274 323.653 395.486 322.866 395.486 322.079V316.306V314.469V310.271C395.486 309.484 394.699 308.696 393.912 308.696H389.714C388.926 308.696 388.139 309.484 388.139 310.271V316.043V323.653V329.426C388.139 330.213 388.926 331 389.714 331H395.486H403.096H410.18H411.755H415.953C416.74 331 417.527 330.213 417.527 329.426V325.227C417.527 324.178 417.003 323.653 415.953 323.653Z" fill="#5E5993"/>
<path d="M475.779 323.653H471.58C470.793 323.653 470.006 324.44 470.006 325.227V329.426C470.006 330.213 470.793 331 471.58 331H475.779C476.566 331 477.353 330.213 477.353 329.426V325.227C477.616 324.178 476.828 323.653 475.779 323.653Z" fill="#5E5993"/>
<path d="M520.648 323.653H516.45C515.663 323.653 514.875 322.866 514.875 322.079V316.306V314.469V310.271C514.875 309.484 514.088 308.696 513.301 308.696H509.103C508.316 308.696 507.528 309.484 507.528 310.271V316.043V321.816C507.528 322.603 506.741 323.391 505.954 323.391H501.756C500.969 323.391 500.181 324.178 500.181 324.965V329.163C500.181 329.95 500.969 330.738 501.756 330.738H507.266H514.875H516.45H520.648C521.435 330.738 522.222 329.95 522.222 329.163V324.965C522.485 324.178 521.698 323.653 520.648 323.653Z" fill="#5E5993"/>
<path d="M329.625 166.479H378.693C379.48 166.479 380.267 165.692 380.267 164.904V159.132V151.785V143.913V136.566V128.956V121.609V115.837C380.267 115.05 379.48 114.262 378.693 114.262H329.625C328.838 114.262 328.051 115.05 328.051 115.837V121.609V128.956V136.566V143.913V151.522V158.869V164.904C327.788 165.692 328.576 166.479 329.625 166.479ZM335.398 151.522V143.913V136.566V128.956V122.397C335.398 121.872 335.923 121.609 336.185 121.609H371.871C372.395 121.609 372.658 122.134 372.658 122.397V128.956V136.566V143.913V151.522V158.082C372.658 158.607 372.133 158.869 371.871 158.869H336.185C335.66 158.869 335.398 158.345 335.398 158.082V151.522Z" fill="#5E5993"/>
<path d="M344.582 151.522H363.736C364.523 151.522 365.311 150.735 365.311 149.948V143.913V136.566V130.793C365.311 130.006 364.523 129.219 363.736 129.219H344.582C343.794 129.219 343.007 130.006 343.007 130.793V136.566V143.913V149.686C342.745 150.735 343.532 151.522 344.582 151.522Z" fill="#5E5993"/>
<path d="M543.214 114H494.146C493.359 114 492.572 114.787 492.572 115.574V121.347V128.694V136.304V143.913V151.522V158.869V164.904C492.572 165.692 493.359 166.479 494.146 166.479H543.214C544.001 166.479 544.788 165.692 544.788 164.904V159.132V151.785V143.913V136.566V128.956V121.609V115.837C544.788 114.787 544.001 114 543.214 114ZM537.441 128.956V136.566V143.913V151.522V158.082C537.441 158.607 536.917 158.869 536.654 158.869H500.706C500.181 158.869 499.919 158.345 499.919 158.082V151.522V143.913V136.566V128.956V122.397C499.919 121.872 500.444 121.609 500.706 121.609H536.392C536.917 121.609 537.179 122.134 537.179 122.397V128.956H537.441Z" fill="#5E5993"/>
<path d="M528.258 128.956H509.103C508.316 128.956 507.529 129.744 507.529 130.531V136.304V143.913V149.686C507.529 150.473 508.316 151.26 509.103 151.26H528.258C529.045 151.26 529.832 150.473 529.832 149.686V143.913V136.566V130.793C529.832 129.744 529.045 128.956 528.258 128.956Z" fill="#5E5993"/>
<path d="M378.693 278.521H329.625C328.838 278.521 328.051 279.308 328.051 280.096V285.868V293.478V301.087V308.434V315.781V323.391V329.163C328.051 329.95 328.838 330.738 329.625 330.738H378.693C379.48 330.738 380.267 329.95 380.267 329.163V323.391V315.781V308.434V301.087V293.478V286.131V280.358C380.267 279.308 379.48 278.521 378.693 278.521ZM372.92 293.478V301.087V308.434V315.781V322.341C372.92 322.866 372.396 323.128 372.133 323.128H336.185C335.66 323.128 335.398 322.603 335.398 322.341V315.781V308.434V301.087V293.478V286.918C335.398 286.393 335.923 286.131 336.185 286.131H371.871C372.396 286.131 372.658 286.655 372.658 286.918V293.478H372.92Z" fill="#5E5993"/>
<path d="M363.736 293.478H344.582C343.795 293.478 343.007 294.265 343.007 295.052V300.825V308.172V314.469C343.007 315.256 343.795 316.043 344.582 316.043H363.736C364.524 316.043 365.311 315.256 365.311 314.469V308.696V301.349V295.577C365.311 294.265 364.524 293.478 363.736 293.478Z" fill="#5E5993"/>
</svg>
