<svg width="720" height="586" viewBox="0 0 720 586" fill="none" xmlns="http://www.w3.org/2000/svg">
<path fill-rule="evenodd" clip-rule="evenodd" d="M1003.05 96.8967C1010.86 112.477 1006.68 132.508 994.117 145.028C978.209 160.607 955.603 156.991 953.649 156.434C953.72 156.624 953.82 156.88 953.945 157.201C955.286 160.649 959.54 171.583 962.859 187.872C966.487 206.24 969.836 234.617 964.813 267.725C958.797 307.521 947.156 329.692 937.762 347.581L937.183 348.685L936.923 349.172C929.787 362.577 924.059 373.337 923.507 387.356C922.67 402.38 927.415 411.561 933.555 423.246C934.196 424.588 934.866 425.959 935.556 427.37C937.869 432.101 940.4 437.277 942.764 443.277C950.579 463.865 949.184 501.702 946.672 529.523C944.455 556.282 940.5 579.359 939.601 584.607C939.481 585.306 939.415 585.689 939.415 585.722C939.415 586 939.136 586 939.136 586L896.156 585.722C895.877 585.722 895.877 585.444 895.877 585.444C895.877 585.165 895.04 554.284 889.458 506.709C886.667 484.452 872.154 470.82 860.433 463.308C847.874 454.962 835.315 451.902 835.315 451.902C835.315 451.86 834.782 451.679 833.78 451.337C828.013 449.371 806.694 442.103 781.729 425.749C766.937 416.012 753.541 404.884 741.54 392.642C720.608 402.658 660.046 428.253 581.621 427.697C532.222 427.419 475.566 419.072 441.796 414.065C435.656 413.23 425.888 411.561 419.469 410.448V411.004C419.469 411.282 419.19 442.442 407.189 459.97C388.398 487.118 372.264 519.035 355.157 552.877L353.883 555.397C349.417 563.743 344.952 572.646 340.487 581.549H340.207L296.948 581.27H296.669C296.718 580.698 296.764 580.147 296.808 579.612C297.522 571.016 297.866 566.873 303.646 554.562C318.159 523.68 342.44 471.933 306.716 396.537C305.042 397.094 290.529 400.989 269.039 402.936C247.828 404.884 215.733 405.162 182.242 395.703C135.237 384.598 101.458 385.358 76.5264 385.92C75.8487 385.935 75.1776 385.95 74.5129 385.965C42.4175 387.078 26.5093 387.356 17.8575 361.204C12.5548 344.79 2.78673 308.622 0.274892 291.929C-0.562388 287.756 0.553945 284.139 3.06579 281.357C9.50935 274.677 24.0457 275.352 27.1111 275.495C27.3651 275.507 27.5403 275.515 27.6257 275.515C56.372 263.273 78.6992 226.549 92.0956 197.615C106.026 167.93 113.808 140.649 114.657 137.675C114.675 137.61 114.69 137.557 114.702 137.516C111.353 133.064 53.5812 52.6609 66.6984 43.2017H66.9776C105.213 47.3748 133.959 58.7816 151.263 67.4062C167.168 75.4598 176.679 83.058 179.175 85.0522C179.439 85.2625 179.624 85.4105 179.73 85.4901C230.246 64.3459 272.946 51.2698 314.252 44.8709C352.487 38.7502 387.374 38.472 427.842 38.1938H432.866C474.441 37.6521 515.753 29.4616 559.376 20.8129C560.556 20.5789 561.738 20.3445 562.922 20.11C605.344 11.4854 649.44 2.5826 696.327 0.356896C735.958 -1.31238 772.519 2.86078 805.173 13.1546C831.407 21.2228 855.13 33.1859 875.783 48.7658C910.39 74.6396 924.624 101.905 925.182 103.017C932.996 118.597 950.3 129.169 967.883 125.831C980.442 123.327 989.931 109.695 984.349 97.175C979.573 86.8602 967.483 82.3282 957.43 78.5597C956.908 78.364 956.391 78.1705 955.882 77.9782C970.395 76.5872 984.907 76.5873 996.071 87.4376C998.862 90.2197 1001.37 93.5581 1003.05 96.8967ZM429.78 581.689C429.78 581.689 418.453 549.672 398 522.629L433.871 453C459.672 516.101 471 582 471 582L429.78 581.689Z" fill="white"/>
<circle cx="146" cy="208" r="14" fill="#373456"/>
</svg>
