<svg width="50" height="80" viewBox="0 0 50 80" fill="none" xmlns="http://www.w3.org/2000/svg">
<g clip-path="url(#clip0)">
<path d="M30.7273 80C23.4251 80 16.8092 75.5798 13.8728 68.74C12.6119 65.8027 11.3487 63.2721 10.0112 61.0028L9.5203 60.1701C8.78483 58.9228 7.9963 57.687 7.17594 56.4957L2.22531 49.3093C0.393043 46.65 1.01459 42.9596 3.61193 41.0826C4.58921 40.3763 5.73682 40.0029 6.93134 40.0029C8.80326 40.0029 10.5652 40.9373 11.6435 42.5032L14.1119 46.0935V20.9473C14.1119 17.6927 16.6975 15.0448 19.8756 15.0448C23.0537 15.0448 25.6393 17.6927 25.6393 20.9473V30.5231C26.4206 30.0851 27.3169 29.8357 28.2685 29.8357C30.6223 29.8357 32.6344 31.3598 33.414 33.4953C34.2718 32.9268 35.2932 32.5968 36.3889 32.5968C39.1655 32.5968 41.4674 34.7186 41.8304 37.4614C42.5988 37.0096 43.4806 36.7448 44.4165 36.7288C45.921 36.7053 47.3333 37.2881 48.3932 38.3764C49.4297 39.4407 50.0005 40.8527 50.0005 42.3522V57.2569C50.0005 61.3843 49.0835 65.5351 47.3484 69.2604C45.849 72.4796 43.4996 75.1875 40.5543 77.0908C37.6085 78.994 34.2104 80 30.7273 80ZM6.93134 42.9332C6.33101 42.9332 5.75414 43.1214 5.26214 43.4765C3.95426 44.4219 3.64097 46.28 4.56353 47.6193L9.51472 54.8058C10.3742 56.0531 11.2001 57.3484 11.9708 58.6546L12.4616 59.4873C13.8639 61.8658 15.1824 64.5062 16.4931 67.5596C18.9731 73.3363 24.5604 77.0685 30.7279 77.0685C36.6893 77.0685 42.1989 73.5079 44.765 67.9977C46.3175 64.6641 47.1384 60.9491 47.1384 57.2558V42.3522C47.1384 41.6339 46.8642 40.9568 46.3672 40.4461C45.8612 39.9262 45.1861 39.6483 44.4646 39.6591C43.05 39.6832 41.8974 40.915 41.8801 42.4122V48.3251C41.8801 49.1309 41.2446 49.7857 40.4577 49.7903C40.4549 49.7903 40.4521 49.7903 40.4493 49.7903C39.6664 49.7903 39.0281 49.1452 39.0186 48.3422V42.4637V42.4631V42.4471C39.0186 42.4466 39.0186 42.4466 39.0186 42.446C39.0186 42.4448 39.0186 42.4437 39.0186 42.4431V38.2203C39.0186 36.7356 37.8392 35.5278 36.3894 35.5278C34.9397 35.5278 33.7603 36.7356 33.7603 38.2203V45.9803C33.7603 46.7895 33.1197 47.4455 32.3295 47.4455C31.5393 47.4455 30.8988 46.7895 30.8988 45.9803V35.4592C30.8988 33.9745 29.7193 32.7667 28.2696 32.7667C26.8199 32.7667 25.6404 33.9745 25.6404 35.4592V42.4631C25.6404 43.2724 24.9999 43.9283 24.2097 43.9283C23.4195 43.9283 22.779 43.2724 22.779 42.4631V20.9473C22.779 19.3089 21.4772 17.9752 19.8767 17.9752C18.2768 17.9752 16.9745 19.3083 16.9745 20.9473V50.6698C16.9879 51.0822 16.832 51.4928 16.5255 51.7879C16.2691 52.0355 15.924 52.1871 15.5437 52.1871C15.0389 52.1871 14.5949 51.9188 14.3403 51.5145L9.3053 44.1914C8.76193 43.4039 7.87456 42.9332 6.93134 42.9332Z" fill="#373456"/>
<path d="M6.93131 42.9332C6.33098 42.9332 5.7541 43.1214 5.26211 43.4765C3.95422 44.4219 3.64094 46.28 4.56349 47.6193L9.51468 54.8058C10.3741 56.0531 11.2001 57.3484 11.9707 58.6546L12.4616 59.4873C13.8639 61.8658 15.1824 64.5062 16.493 67.5596C18.9731 73.3363 24.5604 77.0685 30.7279 77.0685C36.6893 77.0685 42.1989 73.5079 44.765 67.9977C46.3175 64.6641 47.1384 60.9491 47.1384 57.2558V42.3522C47.1384 41.6339 46.8642 40.9568 46.3672 40.4461C45.8612 39.9262 45.186 39.6483 44.4645 39.6591C43.05 39.6832 41.8974 40.915 41.88 42.4122V48.3251C41.88 49.1309 41.2445 49.7857 40.4577 49.7903C40.4549 49.7903 40.4521 49.7903 40.4493 49.7903C39.6664 49.7903 39.028 49.1452 39.0186 48.3422V42.4637V42.4631V42.4471C39.0186 42.4466 39.0186 42.4466 39.0186 42.446C39.0186 42.4448 39.0186 42.4437 39.0186 42.4431V38.2203C39.0186 36.7356 37.8391 35.5278 36.3894 35.5278C34.9397 35.5278 33.7602 36.7356 33.7602 38.2203V45.9803C33.7602 46.7895 33.1197 47.4455 32.3295 47.4455C31.5393 47.4455 30.8987 46.7895 30.8987 45.9803V35.4592C30.8987 33.9745 29.7193 32.7667 28.2696 32.7667C26.8198 32.7667 25.6404 33.9745 25.6404 35.4592V42.4631C25.6404 43.2724 24.9999 43.9283 24.2097 43.9283C23.4195 43.9283 22.7789 43.2724 22.7789 42.4631V20.9473C22.7789 19.3088 21.4772 17.9752 19.8767 17.9752C18.2767 17.9752 16.9744 19.3083 16.9744 20.9473V50.6698C16.9878 51.0822 16.832 51.4928 16.5254 51.7879C16.2691 52.0355 15.924 52.1871 15.5437 52.1871C15.0388 52.1871 14.5949 51.9188 14.3402 51.5145L9.30526 44.1914C8.7619 43.4039 7.87452 42.9332 6.93131 42.9332Z" fill="white"/>
<path d="M19.9266 10.9009C19.1554 10.9009 18.5305 10.2609 18.5305 9.47114V1.42974C18.5305 0.63995 19.1554 0 19.9266 0C20.6978 0 21.3227 0.63995 21.3227 1.42974V9.47114C21.3227 10.2609 20.6978 10.9009 19.9266 10.9009Z" fill="#373456"/>
<path d="M27.4767 14.104C27.1193 14.104 26.7619 13.9645 26.4894 13.6854C25.9443 13.1272 25.9443 12.2219 26.4894 11.6632L32.042 5.97685C32.587 5.41869 33.4711 5.41869 34.0167 5.97685C34.5617 6.53502 34.5617 7.44033 34.0167 7.99907L28.464 13.6854C28.1915 13.9645 27.8341 14.104 27.4767 14.104Z" fill="#373456"/>
<path d="M38.457 21.8361H30.6041C29.8329 21.8361 29.208 21.1961 29.208 20.4063C29.208 19.6165 29.8329 18.9766 30.6041 18.9766H38.4564C39.2277 18.9766 39.8526 19.6165 39.8526 20.4063C39.8531 21.1961 39.2277 21.8361 38.457 21.8361Z" fill="#373456"/>
<path d="M9.24844 21.8361H1.39612C0.624902 21.8361 0 21.1961 0 20.4063C0 19.6165 0.624902 18.9766 1.39612 18.9766H9.24844C10.0197 18.9766 10.6446 19.6165 10.6446 20.4063C10.6446 21.1961 10.0197 21.8361 9.24844 21.8361Z" fill="#373456"/>
<path d="M12.3762 14.104C12.0188 14.104 11.6614 13.9645 11.3889 13.6854L5.83627 7.99907C5.29123 7.4409 5.29123 6.53559 5.83627 5.97685C6.38132 5.41869 7.26534 5.41869 7.81094 5.97685L13.3636 11.6632C13.9086 12.2214 13.9086 13.1267 13.3636 13.6854C13.0905 13.9645 12.7331 14.104 12.3762 14.104Z" fill="#373456"/>
</g>
<defs>
<clipPath id="clip0">
<rect width="50" height="80" fill="white"/>
</clipPath>
</defs>
</svg>
